<svg width="60" height="60" viewBox="0 0 60 60" fill="none" xmlns="http://www.w3.org/2000/svg">
<g id="Group">
<path id="Union" fill-rule="evenodd" clip-rule="evenodd" d="M6.75 3.75C5.09315 3.75 3.75 5.09315 3.75 6.75V41.8066V53.25V54.7559C3.75 55.5811 5.0092 56.25 6.5625 56.25H6.75H17.5415H53.4375C54.9908 56.25 56.25 55.5811 56.25 54.7559V38.9941C56.25 38.1689 54.9908 37.5 53.4375 37.5L22.709 39.3437C21.5447 39.4136 20.5669 38.4762 20.5986 37.3103C20.7253 32.6508 20.9897 28.2217 21.5 25.5C22.5908 19.6826 22.0952 10.8248 21.7436 6.42448C21.6216 4.8984 20.3404 3.75 18.8095 3.75H6.75Z" fill="#D8E7DC"/>
<path id="Vector" d="M57 10C58.6534 9.99184 59.9918 8.6535 60 7.00001C60 5.34318 58.6568 4.00001 57 4.00001H56V3.00005C56.003 2.6082 55.9271 2.21976 55.777 1.85781C55.6268 1.49586 55.4055 1.16777 55.126 0.893035C54.8503 0.608361 54.5198 0.382477 54.1544 0.229004C53.789 0.0755308 53.3964 -0.00235121 53 5.4059e-05C51.3432 5.4059e-05 50 1.34322 50 3.00005V4.00001H46.0001V3.00005C46.003 2.6082 45.9272 2.21976 45.777 1.85781C45.6269 1.49586 45.4055 1.16777 45.1261 0.893035C44.8504 0.608361 44.5199 0.382477 44.1545 0.229004C43.7891 0.0755308 43.3964 -0.00235121 43.0001 5.4059e-05C41.3433 5.4059e-05 40.0001 1.34322 40.0001 3.00005V4.00001H36.0001V3.00005C36.0031 2.6082 35.9272 2.21976 35.7771 1.85781C35.6269 1.49586 35.4056 1.16777 35.1262 0.893035C34.8504 0.608361 34.5199 0.382477 34.1545 0.229004C33.7891 0.0755308 33.3964 -0.00235121 33.0001 5.4059e-05C31.3433 5.4059e-05 30.0001 1.34322 30.0001 3.00005V4.00001H26.691C26.691 1.79084 24.9001 5.4059e-05 22.691 5.4059e-05H5.00002C2.23998 0.00330198 0.00334634 2.23994 0 4.99998V54.9999C0.00334634 57.76 2.23998 59.9966 5.00002 60H55C57.76 59.9966 59.9967 57.76 60 54.9999V37.31C60 35.1008 58.2091 33.31 56 33.31V30H57C58.6534 29.9918 59.9918 28.6535 60 27C60 25.3432 58.6568 24 57 24H56V20.0001H57C58.6534 19.9919 59.9918 18.6535 60 17.0001C60 15.3432 58.6568 14.0001 57 14.0001H56V10.0001H57V10ZM57 6.00004C57.5522 6.00004 58 6.44776 58 7.00001C58.0003 7.13344 57.9733 7.26553 57.9207 7.38814C57.8681 7.51076 57.7909 7.62131 57.694 7.71298C57.6033 7.80476 57.4952 7.87745 57.376 7.92674C57.2569 7.97604 57.129 8.00094 57 7.99997H56V6.00004H57ZM52 3.00005C52 2.4478 52.4477 2.00008 52.9999 2.00008C53.1332 1.99988 53.2651 2.02693 53.3875 2.07954C53.51 2.13216 53.6204 2.20925 53.7119 2.30608C53.8043 2.39633 53.8774 2.50434 53.9269 2.62361C53.9764 2.74287 54.0012 2.87093 53.9999 3.00005V33.716C53.6509 33.828 53.3219 33.943 52.9999 34.057C52.6779 34.171 52.343 34.288 52 34.396V3.00005ZM44 10V14H41.9999V10H44ZM50 10V14H46V10H50ZM35.9999 28V25.9999H50V28H35.9999ZM50 16V18H35.9999V16H50ZM41.9999 24V20.0001H44V24H41.9999ZM35.9999 24V20.0001H39.9999V24H35.9999ZM46 20H50V23.9999H46V20ZM40 14H36V10H40V14ZM35.9999 30H39.9999V33.357C38.7928 33.1033 37.5613 32.9835 36.3279 33C36.2149 33 36.1099 33.013 35.9998 33.017V30H35.9999ZM41.9999 30H44V34.588C43.4 34.432 42.868 34.247 42.329 34.057L41.9999 33.9421V30ZM46 30H50V34.8489C49.2258 34.9546 48.4452 35.0051 47.6639 34.9999C47.0389 34.9999 46.4939 34.973 45.9999 34.9279V30H46ZM41.9999 3.00005C41.9999 2.4478 42.4477 2.00008 42.9999 2.00008C43.1332 1.99988 43.2651 2.02693 43.3875 2.07954C43.5099 2.13216 43.6203 2.20925 43.7119 2.30608C43.8042 2.39633 43.8774 2.50434 43.9269 2.62361C43.9763 2.74287 44.0012 2.87093 43.9999 3.00005V4.00001H41.9998V3.00005H41.9999ZM50 6.00004V8.00007H35.9999V6.00004H50ZM32 3.00005C32 2.4478 32.4477 2.00008 32.9999 2.00008C33.1332 1.99988 33.2651 2.02693 33.3875 2.07954C33.51 2.13216 33.6204 2.20925 33.7119 2.30608C33.8043 2.39633 33.8774 2.50434 33.9269 2.62361C33.9764 2.74287 34.0012 2.87093 33.9999 3.00005V33.305C33.3134 33.4821 32.6441 33.7201 31.9999 34.016V3.00005H32ZM26.6449 20H30V23.9999H26.9829C26.9829 23.8869 27 23.779 27 23.6639C27.0163 22.4333 26.8973 21.2046 26.6449 20ZM30 14H25.073C25.027 13.505 24.9999 12.957 24.9999 12.328C24.9951 11.5495 25.0452 10.7714 25.1499 10H30V14ZM30 16V18H26.0609C26.021 17.888 25.9819 17.774 25.9429 17.663C25.7539 17.127 25.5689 16.599 25.4139 16H30ZM26.694 25.9999H30V28H25.981C26.2771 27.3556 26.5157 26.6863 26.694 25.9999ZM24.946 30H30V35.051C27.736 36.294 26.7 36.705 24.9999 35C23.2999 33.2951 23.705 32.2609 24.946 30ZM30 7.99997H25.6C25.708 7.65599 25.824 7.32795 25.941 7.00001C26.0581 6.67197 26.1691 6.35102 26.28 6.00004H30V7.99997ZM58 37.31V54.9999C58 56.6568 56.6568 57.9999 55 57.9999H5.00002C3.34319 57.9999 2.00003 56.6568 2.00003 54.9999V4.99998C2.00003 3.34315 3.34319 1.99999 5.00002 1.99999H22.69C22.9926 2.00036 23.2912 2.06923 23.5635 2.20144C23.8357 2.33366 24.0745 2.52578 24.2619 2.76341C24.4493 3.00104 24.5805 3.27802 24.6457 3.57357C24.7108 3.86912 24.7082 4.17558 24.638 4.46998C24.4778 5.09993 24.2839 5.72082 24.057 6.32995C23.3134 8.24094 22.9543 10.2799 23.0001 12.3299C22.9542 14.38 23.3133 16.419 24.057 18.3299C24.7232 20.0274 25.0438 21.8409 25 23.6639C24.9015 25.5266 24.3062 27.3289 23.2761 28.8839C22.0761 31.0639 20.709 33.5359 23.5851 36.4139C26.4611 39.2918 28.9311 37.9279 31.1111 36.7239C32.665 35.6938 34.4664 35.0986 36.3281 34.9999C38.1518 34.9562 39.9659 35.2768 41.6641 35.9429C43.575 36.6869 45.614 37.0461 47.6641 36.9999C49.7143 37.0461 51.7534 36.6865 53.6641 35.9418C54.2749 35.715 54.8975 35.521 55.5291 35.3608C55.8236 35.2908 56.1302 35.2884 56.4258 35.3536C56.7214 35.4189 56.9984 35.5502 57.2361 35.7377C57.4737 35.9252 57.6659 36.164 57.7982 36.4363C57.9305 36.7086 57.9995 37.0073 58 37.31ZM57 25.9999C57.5522 25.9999 58 26.4477 58 26.9999C58.0003 27.1333 57.9733 27.2654 57.9207 27.388C57.8681 27.5107 57.7909 27.6212 57.694 27.7129C57.6033 27.8047 57.4952 27.8773 57.376 27.9266C57.2569 27.9759 57.129 28.0008 57 27.9999H56V25.9998H57V25.9999ZM57 16C57.5522 16 58 16.4477 58 17C58.0003 17.1334 57.9733 17.2655 57.9207 17.3881C57.8681 17.5107 57.7909 17.6213 57.694 17.7129C57.6033 17.8047 57.4952 17.8774 57.376 17.9267C57.2569 17.976 57.129 18.0009 57 17.9999H56V15.9999L57 16Z" fill="#349F55"/>
<path id="Vector_2" d="M7.99987 49.0002C6.34304 49.0002 4.99988 50.3434 4.99988 52.0002C4.99988 53.657 6.34304 55.0002 7.99987 55.0002C9.65671 55.0002 10.9999 53.657 10.9999 52.0002C10.9999 50.3434 9.65671 49.0002 7.99987 49.0002ZM7.99987 53.0002C7.44763 53.0002 6.99991 52.5524 6.99991 52.0002C6.99991 51.448 7.44763 51.0002 7.99987 51.0002C8.55212 51.0002 8.99984 51.448 8.99984 52.0002C8.99984 52.5525 8.55212 53.0002 7.99987 53.0002ZM17.9998 5.00024C16.343 5.00024 14.9998 6.34341 14.9998 8.00024C14.9998 9.65707 16.343 11.0002 17.9998 11.0002C19.6567 11.0002 20.9998 9.65707 20.9998 8.00024C20.9998 6.34341 19.6568 5.00024 17.9998 5.00024ZM17.9998 9.0003C17.4476 9.0003 16.9999 8.55258 16.9999 8.00034C16.9999 7.44809 17.4476 7.00037 17.9998 7.00037C18.5521 7.00037 18.9998 7.44809 18.9998 8.00034C18.9999 8.55258 18.5522 9.0003 17.9998 9.0003Z" fill="#349F55"/>
<g id="Group_2">
<path id="Vector_3" d="M9.00021 47.0002C9.55248 47.0002 10.0002 46.5525 10.0002 46.0002C10.0002 45.4479 9.55248 45.0002 9.00021 45.0002C8.44794 45.0002 8.00024 45.4479 8.00024 46.0002C8.00024 46.5525 8.44794 47.0002 9.00021 47.0002Z" fill="#349F55"/>
<path id="Vector_4" d="M16.0002 15.0004C16.5525 15.0004 17.0002 14.5527 17.0002 14.0005C17.0002 13.4482 16.5525 13.0005 16.0002 13.0005C15.4479 13.0005 15.0002 13.4482 15.0002 14.0005C15.0002 14.5527 15.4479 15.0004 16.0002 15.0004Z" fill="#349F55"/>
<path id="Vector_5" d="M54.0002 41.0002C54.5525 41.0002 55.0002 40.5525 55.0002 40.0002C55.0002 39.4479 54.5525 39.0002 54.0002 39.0002C53.4479 39.0002 53.0002 39.4479 53.0002 40.0002C53.0002 40.5525 53.4479 41.0002 54.0002 41.0002Z" fill="#349F55"/>
<path id="Vector_6" fill-rule="evenodd" clip-rule="evenodd" d="M48.3852 49.2112C48.2287 49.3324 48.1117 49.4974 48.0491 49.6853C47.9865 49.8731 47.981 50.0753 48.0334 50.2663C48.0858 50.4572 48.1937 50.6283 48.3434 50.7578C48.4932 50.8874 48.678 50.9696 48.8745 50.994C49.0376 51.0142 49.2031 50.994 49.3565 50.935C49.5099 50.876 49.6464 50.7802 49.7539 50.6559C49.8614 50.5316 49.9367 50.3828 49.973 50.2225C50.0093 50.0622 50.0055 49.8955 49.962 49.737C49.9185 49.5785 49.8367 49.4332 49.7236 49.3139C49.6106 49.1946 49.4699 49.105 49.314 49.053C49.1582 49.001 48.9919 48.9883 48.8299 49.0158C48.6679 49.0434 48.5152 49.1105 48.3852 49.2112ZM46.3853 39.2112C46.2288 39.3325 46.1118 39.4975 46.0492 39.6853C45.9865 39.8732 45.9811 40.0754 46.0335 40.2663C46.0859 40.4573 46.1938 40.6283 46.3435 40.7579C46.4932 40.8874 46.6781 40.9696 46.8746 40.994C47.0377 41.0143 47.2032 40.994 47.3566 40.935C47.51 40.8761 47.6465 40.7802 47.754 40.6559C47.8615 40.5317 47.9367 40.3828 47.973 40.2225C48.0093 40.0623 48.0056 39.8955 47.9621 39.737C47.9186 39.5786 47.8367 39.4333 47.7237 39.314C47.6107 39.1947 47.47 39.1051 47.3141 39.0531C47.1582 39.0011 46.9919 38.9883 46.8299 39.0159C46.6679 39.0435 46.5152 39.1106 46.3853 39.2112Z" fill="#349F55"/>
</g>
</g>
</svg>
