<svg width="49" height="59" viewBox="0 0 49 59" fill="none" xmlns="http://www.w3.org/2000/svg">
<g id="Group">
<rect id="Rectangle 213" x="4" y="4" width="41" height="12" rx="3" fill="#D8E7DC"/>
<path id="Vector" d="M45.0802 0H3.9228C1.76095 0 0.00287072 1.76455 0.00287072 3.93323V18.6798C0.00287072 18.6848 0 18.689 0 18.694C0 18.6991 0.00275588 18.7033 0.00287072 18.7083V38.3586C0.00287072 38.3636 0 38.3678 0 38.3729C0 38.3779 0.00275588 38.3821 0.00287072 38.3871V55.0657C0.00287072 57.2345 1.76083 58.9989 3.92268 58.9989H45.0802C47.242 58.9989 49 57.2345 49 55.0657V3.93323C49.0001 1.76455 47.242 0 45.0802 0ZM23.522 57.0323H3.9228C2.84239 57.0323 1.96283 56.1503 1.96283 55.0657V39.3563H23.522V57.0323ZM23.522 37.3896H1.96283V19.6774H23.522V37.3896ZM24.502 17.7035C24.4894 17.7035 24.4789 17.7102 24.4665 17.7108H1.96283V3.93323C1.96283 2.84855 2.84227 1.96656 3.9228 1.96656H45.0803C46.1607 1.96656 47.0403 2.84855 47.0403 3.93323V17.7108H24.5376C24.5251 17.7103 24.5146 17.7035 24.502 17.7035ZM47.0402 55.0658C47.0402 56.1505 46.1607 57.0324 45.0802 57.0324H25.4819V39.3563H47.0402V55.0658ZM47.0402 37.3896H25.4819V19.6774H47.0402V37.3896Z" fill="#349F55"/>
<path id="Vector_2" d="M7.84923 29.4993H11.769V33.4325C11.769 33.5616 11.7943 33.6895 11.8435 33.8088C11.8928 33.9282 11.965 34.0366 12.056 34.1279C12.147 34.2192 12.255 34.2916 12.3739 34.341C12.4928 34.3904 12.6203 34.4158 12.749 34.4158C12.8777 34.4158 13.0051 34.3904 13.124 34.341C13.2429 34.2916 13.351 34.2192 13.442 34.1279C13.533 34.0366 13.6052 33.9282 13.6544 33.8088C13.7036 33.6895 13.7289 33.5616 13.7289 33.4325V29.4993H17.6487C18.1904 29.4993 18.6286 29.059 18.6286 28.516C18.6286 27.973 18.1903 27.5327 17.6487 27.5327H13.7289V23.5995C13.7289 23.4703 13.7036 23.3425 13.6544 23.2232C13.6052 23.1038 13.533 22.9954 13.442 22.9041C13.351 22.8128 13.2429 22.7404 13.124 22.691C13.0051 22.6416 12.8777 22.6162 12.749 22.6162C12.6203 22.6162 12.4928 22.6416 12.3739 22.691C12.255 22.7404 12.147 22.8128 12.056 22.9041C11.965 22.9954 11.8928 23.1038 11.8435 23.2232C11.7943 23.3425 11.769 23.4703 11.769 23.5995V27.5327H7.84923C7.30754 27.5327 6.86931 27.973 6.86931 28.516C6.86931 29.059 7.30765 29.4993 7.84923 29.4993ZM31.3837 29.4993H41.1833C41.312 29.4993 41.4394 29.4739 41.5584 29.4245C41.6773 29.3751 41.7853 29.3027 41.8763 29.2114C41.9673 29.1201 42.0395 29.0117 42.0887 28.8923C42.138 28.773 42.1633 28.6451 42.1632 28.516C42.1633 28.3869 42.138 28.259 42.0887 28.1397C42.0395 28.0203 41.9673 27.9119 41.8763 27.8206C41.7853 27.7293 41.6773 27.6569 41.5584 27.6075C41.4394 27.5581 41.312 27.5327 41.1833 27.5327H31.3837C31.255 27.5327 31.1276 27.5581 31.0087 27.6075C30.8898 27.6569 30.7817 27.7293 30.6907 27.8206C30.5997 27.9119 30.5275 28.0203 30.4783 28.1397C30.4291 28.259 30.4037 28.3869 30.4038 28.516C30.4037 28.6451 30.4291 28.773 30.4783 28.8923C30.5275 29.0117 30.5997 29.1201 30.6907 29.2114C30.7817 29.3027 30.8898 29.3751 31.0087 29.4245C31.1276 29.4739 31.255 29.4993 31.3837 29.4993ZM8.13633 52.8232C8.32777 53.0153 8.57846 53.1113 8.82916 53.1113C9.07985 53.1113 9.33066 53.0153 9.52198 52.8232L12.749 49.5852L15.976 52.8232C16.1674 53.0153 16.4181 53.1113 16.6688 53.1113C16.9195 53.1113 17.1703 53.0153 17.3616 52.8232C17.4526 52.7319 17.5248 52.6236 17.5741 52.5043C17.6233 52.385 17.6487 52.2571 17.6487 52.128C17.6487 51.9989 17.6233 51.871 17.5741 51.7517C17.5248 51.6324 17.4526 51.524 17.3616 51.4327L14.1346 48.1947L17.3616 44.9567C17.7444 44.5726 17.7444 43.9503 17.3616 43.5662C16.9788 43.182 16.3587 43.1821 15.9758 43.5662L12.7489 46.8042L9.52187 43.5662C9.43089 43.4748 9.32287 43.4024 9.20399 43.353C9.0851 43.3035 8.95767 43.2781 8.82898 43.2781C8.7003 43.2781 8.57287 43.3035 8.45398 43.353C8.3351 43.4024 8.22708 43.4748 8.1361 43.5662C8.04509 43.6574 7.97289 43.7658 7.92363 43.8851C7.87437 44.0044 7.84902 44.1323 7.84902 44.2614C7.84902 44.3905 7.87437 44.5184 7.92363 44.6377C7.97289 44.757 8.04509 44.8654 8.1361 44.9567L11.3631 48.1947L8.1361 51.4327C7.95238 51.6172 7.84919 51.8673 7.84923 52.128C7.84927 52.3888 7.95255 52.6389 8.13633 52.8232ZM31.354 51.1279H41.1536C41.6953 51.1279 42.1335 50.6876 42.1335 50.1447C42.1335 49.6017 41.6951 49.1614 41.1536 49.1614H31.354C30.8123 49.1614 30.3741 49.6017 30.3741 50.1447C30.3741 50.6876 30.8124 51.1279 31.354 51.1279ZM31.354 47.1923H41.1536C41.6953 47.1923 42.1335 46.752 42.1335 46.209C42.1335 45.666 41.6951 45.2257 41.1536 45.2257H31.354C30.8123 45.2257 30.3741 45.666 30.3741 46.209C30.3741 46.752 30.8124 47.1923 31.354 47.1923Z" fill="#349F55"/>
</g>
</svg>
