<svg width="104" height="104" viewBox="0 0 104 104" fill="none" xmlns="http://www.w3.org/2000/svg">
<g id="&#208;&#154;&#208;&#176;&#208;&#187;&#208;&#181;&#208;&#189;&#208;&#180;&#208;&#176;&#209;&#128;&#209;&#140;">
<rect id="Rectangle 216" x="15" y="45" width="18" height="17" rx="2" fill="#D8E7DC"/>
<rect id="Rectangle 218" x="72" y="45" width="18" height="17" rx="2" fill="#D8E7DC"/>
<rect id="Rectangle 219" x="27" y="68" width="17" height="17" rx="2" fill="#D8E7DC"/>
<rect id="Rectangle 217" x="49" y="56.5" width="18" height="17" rx="2" fill="#D8E7DC"/>
<path id="Vector" d="M9.96644 96H94.0336C95.616 96 97.1335 95.3781 98.2525 94.271C99.3714 93.164 100 91.6625 100 90.0969V24.6019C99.9843 23.0465 99.3487 21.5602 98.2315 20.4659C97.1143 19.3715 95.6057 18.7577 94.0336 18.7578H84.5469V13.8385C84.5469 13.0766 84.8528 12.3459 85.3974 11.8071C85.9419 11.2684 86.6805 10.9657 87.4506 10.9657C88.2201 10.9714 88.9576 11.271 89.509 11.802C89.7801 12.069 89.9952 12.3863 90.142 12.7358C90.2887 13.0853 90.3643 13.4601 90.3642 13.8385C90.3642 14.0995 90.469 14.3497 90.6555 14.5342C90.8419 14.7187 91.0949 14.8224 91.3586 14.8224C91.6223 14.8224 91.8753 14.7187 92.0618 14.5342C92.2483 14.3497 92.353 14.0995 92.353 13.8385C92.2962 12.5912 91.7554 11.4136 90.8432 10.5508C89.9309 9.68804 88.7175 9.20654 87.4556 9.20654C86.1936 9.20654 84.9802 9.68804 84.068 10.5508C83.1557 11.4136 82.6149 12.5912 82.5581 13.8385V18.7578H66.8167V13.8385C66.8167 13.0766 67.1226 12.3459 67.6671 11.8071C68.2117 11.2684 68.9502 10.9657 69.7203 10.9657C70.4932 10.9688 71.2348 11.2686 71.7887 11.802C72.0584 12.0694 72.272 12.3871 72.4171 12.7367C72.5621 13.0862 72.6358 13.4607 72.6339 13.8385C72.6339 14.0995 72.7387 14.3497 72.9252 14.5342C73.1117 14.7187 73.3646 14.8224 73.6283 14.8224C73.8921 14.8224 74.145 14.7187 74.3315 14.5342C74.518 14.3497 74.6227 14.0995 74.6227 13.8385C74.6252 13.2024 74.4999 12.5722 74.2541 11.9845C74.0082 11.3967 73.6468 10.8631 73.1908 10.4147C72.5052 9.73878 71.6328 9.27873 70.6834 9.09256C69.734 8.90638 68.7501 9.00241 67.8558 9.36855C66.9615 9.73469 66.1967 10.3545 65.6579 11.15C65.119 11.9455 64.8302 12.8809 64.8279 13.8385V18.7578H49.0963V13.8385C49.1397 13.1044 49.4651 12.4144 50.0058 11.9098C50.5465 11.4052 51.2617 11.1242 52.005 11.1242C52.7483 11.1242 53.4634 11.4052 54.0041 11.9098C54.5449 12.4144 54.8702 13.1044 54.9136 13.8385C54.9136 14.0995 55.0184 14.3497 55.2049 14.5342C55.3914 14.7187 55.6443 14.8224 55.908 14.8224C56.1718 14.8224 56.4247 14.7187 56.6112 14.5342C56.7977 14.3497 56.9024 14.0995 56.9024 13.8385C56.8456 12.5912 56.3048 11.4136 55.3926 10.5508C54.4803 9.68804 53.267 9.20654 52.005 9.20654C50.743 9.20654 49.5296 9.68804 48.6174 10.5508C47.7052 11.4136 47.1643 12.5912 47.1075 13.8385V18.7578H31.3661V13.8385C31.3661 13.0766 31.672 12.3459 32.2165 11.8071C32.7611 11.2684 33.4996 10.9657 34.2697 10.9657C35.0392 10.9714 35.7767 11.271 36.3282 11.802C36.5993 12.069 36.8144 12.3863 36.9611 12.7358C37.1079 13.0853 37.1834 13.4601 37.1833 13.8385C37.1833 14.0995 37.2881 14.3497 37.4746 14.5342C37.6611 14.7187 37.914 14.8224 38.1777 14.8224C38.4415 14.8224 38.6944 14.7187 38.8809 14.5342C39.0674 14.3497 39.1722 14.0995 39.1722 13.8385C39.1153 12.5912 38.5745 11.4136 37.6623 10.5508C36.7501 9.68804 35.5367 9.20654 34.2747 9.20654C33.0127 9.20654 31.7993 9.68804 30.8871 10.5508C29.9749 11.4136 29.4341 12.5912 29.3773 13.8385V18.7578H13.6358V13.8385C13.6358 13.0766 13.9417 12.3459 14.4863 11.8071C15.0308 11.2684 15.7694 10.9657 16.5395 10.9657C17.3089 10.9714 18.0464 11.271 18.5979 11.802C18.8708 12.0676 19.0871 12.3848 19.234 12.7346C19.3809 13.0844 19.4554 13.4598 19.4531 13.8385C19.4531 14.0995 19.5578 14.3497 19.7443 14.5342C19.9308 14.7187 20.1838 14.8224 20.4475 14.8224C20.7112 14.8224 20.9641 14.7187 21.1506 14.5342C21.3371 14.3497 21.4419 14.0995 21.4419 13.8385C21.4443 13.2024 21.319 12.5722 21.0732 11.9845C20.8274 11.3967 20.466 10.8631 20.0099 10.4147C19.3244 9.73878 18.4519 9.27873 17.5025 9.09256C16.5531 8.90638 15.5693 9.00241 14.6749 9.36855C13.7806 9.73469 13.0158 10.3545 12.477 11.15C11.9382 11.9455 11.6494 12.8809 11.647 13.8385V18.7578H9.96644C8.39432 18.7577 6.88571 19.3715 5.76848 20.4659C4.65126 21.5602 4.01572 23.0465 4 24.6019V90.1461C4.01312 91.7031 4.64751 93.192 5.76501 94.2884C6.88252 95.3849 8.39262 96 9.96644 96ZM94.0336 94.0323H9.96644C8.91151 94.0323 7.89978 93.6177 7.15383 92.8796C6.40788 92.1416 5.98881 91.1406 5.98881 90.0969V36.3097H97.9316V90.1461C97.9189 91.1678 97.5051 92.1445 96.7776 92.8698C96.0501 93.595 95.0661 94.0119 94.0336 94.0323ZM6.02859 24.6019C6.04426 23.5684 6.47024 22.5825 7.2145 21.8572C7.95875 21.1319 8.96154 20.7254 10.0062 20.7255H11.6868V25.5464C11.6868 25.8073 11.7915 26.0576 11.978 26.2421C12.1645 26.4266 12.4174 26.5302 12.6812 26.5302C12.9449 26.5302 13.1978 26.4266 13.3843 26.2421C13.5708 26.0576 13.6756 25.8073 13.6756 25.5464V20.7255H29.3773V25.5464C29.3773 25.8073 29.482 26.0576 29.6685 26.2421C29.855 26.4266 30.1079 26.5302 30.3717 26.5302C30.6354 26.5302 30.8883 26.4266 31.0748 26.2421C31.2613 26.0576 31.3661 25.8073 31.3661 25.5464V20.7255H47.1075V25.5464C47.1075 25.8073 47.2123 26.0576 47.3988 26.2421C47.5853 26.4266 47.8382 26.5302 48.1019 26.5302C48.3657 26.5302 48.6186 26.4266 48.8051 26.2421C48.9916 26.0576 49.0963 25.8073 49.0963 25.5464V20.7255H64.8279V25.5464C64.8279 25.8073 64.9326 26.0576 65.1191 26.2421C65.3056 26.4266 65.5585 26.5302 65.8223 26.5302C66.086 26.5302 66.3389 26.4266 66.5254 26.2421C66.7119 26.0576 66.8167 25.8073 66.8167 25.5464V20.7255H82.5581V25.5464C82.5581 25.8073 82.6629 26.0576 82.8494 26.2421C83.0359 26.4266 83.2888 26.5302 83.5525 26.5302C83.8163 26.5302 84.0692 26.4266 84.2557 26.2421C84.4421 26.0576 84.5469 25.8073 84.5469 25.5464V20.7255H94.0336C95.0782 20.7254 96.081 21.1319 96.8253 21.8572C97.5695 22.5825 97.9955 23.5684 98.0112 24.6019V34.342H6.02859V24.6019ZM91.7763 48.8932C92.04 48.8932 92.2929 48.7895 92.4794 48.605C92.6659 48.4205 92.7707 48.1703 92.7707 47.9093C92.7707 47.6484 92.6659 47.3981 92.4794 47.2136C92.2929 47.0291 92.04 46.9255 91.7763 46.9255H87.2219V41.4257C87.2219 41.1648 87.1171 40.9146 86.9306 40.7301C86.7441 40.5455 86.4912 40.4419 86.2275 40.4419C85.9637 40.4419 85.7108 40.5455 85.5243 40.7301C85.3378 40.9146 85.2331 41.1648 85.2331 41.4257V46.9255H75.9354V41.4257C75.9354 41.1648 75.8306 40.9146 75.6441 40.7301C75.4576 40.5455 75.2047 40.4419 74.9409 40.4419C74.6772 40.4419 74.4243 40.5455 74.2378 40.7301C74.0513 40.9146 73.9465 41.1648 73.9465 41.4257V46.9255H64.6489V41.4257C64.6489 41.1648 64.5441 40.9146 64.3576 40.7301C64.1711 40.5455 63.9182 40.4419 63.6544 40.4419C63.3907 40.4419 63.1378 40.5455 62.9513 40.7301C62.7648 40.9146 62.66 41.1648 62.66 41.4257V46.9255H53.3623V41.4257C53.3623 41.1648 53.2576 40.9146 53.0711 40.7301C52.8846 40.5455 52.6317 40.4419 52.3679 40.4419C52.1042 40.4419 51.8513 40.5455 51.6648 40.7301C51.4783 40.9146 51.3735 41.1648 51.3735 41.4257V46.9255H42.0559V41.4257C42.0559 41.1648 41.9512 40.9146 41.7647 40.7301C41.5782 40.5455 41.3253 40.4419 41.0615 40.4419C40.7978 40.4419 40.5449 40.5455 40.3584 40.7301C40.1719 40.9146 40.0671 41.1648 40.0671 41.4257V46.9255H30.7893V41.4257C30.7893 41.1648 30.6845 40.9146 30.4981 40.7301C30.3116 40.5455 30.0586 40.4419 29.7949 40.4419C29.5312 40.4419 29.2782 40.5455 29.0918 40.7301C28.9053 40.9146 28.8005 41.1648 28.8005 41.4257V46.9255H19.5028V41.4257C19.5028 41.1648 19.398 40.9146 19.2115 40.7301C19.0251 40.5455 18.7721 40.4419 18.5084 40.4419C18.2447 40.4419 17.9917 40.5455 17.8052 40.7301C17.6188 40.9146 17.514 41.1648 17.514 41.4257V46.9255H12.2237C11.96 46.9255 11.7071 47.0291 11.5206 47.2136C11.3341 47.3981 11.2293 47.6484 11.2293 47.9093C11.2293 48.1703 11.3341 48.4205 11.5206 48.605C11.7071 48.7895 11.96 48.8932 12.2237 48.8932H17.4842V58.3873H12.2237C11.96 58.3873 11.7071 58.491 11.5206 58.6755C11.3341 58.86 11.2293 59.1103 11.2293 59.3712C11.2293 59.6321 11.3341 59.8824 11.5206 60.0669C11.7071 60.2514 11.96 60.355 12.2237 60.355H17.4842V69.8394H12.2237C11.96 69.8394 11.7071 69.943 11.5206 70.1275C11.3341 70.312 11.2293 70.5623 11.2293 70.8232C11.2293 71.0842 11.3341 71.3344 11.5206 71.5189C11.7071 71.7034 11.96 71.8071 12.2237 71.8071H17.4842V81.2914H12.2237C11.96 81.2914 11.7071 81.3951 11.5206 81.5796C11.3341 81.7641 11.2293 82.0143 11.2293 82.2753C11.2293 82.5362 11.3341 82.7864 11.5206 82.971C11.7071 83.1555 11.96 83.2591 12.2237 83.2591H17.4842V88.749C17.4842 89.0099 17.5889 89.2602 17.7754 89.4447C17.9619 89.6292 18.2148 89.7329 18.4786 89.7329C18.7423 89.7329 18.9952 89.6292 19.1817 89.4447C19.3682 89.2602 19.473 89.0099 19.473 88.749V83.2394H28.7707V88.7293C28.7707 88.9903 28.8754 89.2405 29.0619 89.425C29.2484 89.6095 29.5013 89.7132 29.7651 89.7132C30.0288 89.7132 30.2817 89.6095 30.4682 89.425C30.6547 89.2405 30.7595 88.9903 30.7595 88.7293V83.2394H40.0671V88.7293C40.0671 88.9903 40.1719 89.2405 40.3584 89.425C40.5449 89.6095 40.7978 89.7132 41.0615 89.7132C41.3253 89.7132 41.5782 89.6095 41.7647 89.425C41.9512 89.2405 42.0559 88.9903 42.0559 88.7293V83.2394H51.3536V88.7293C51.3536 88.9903 51.4584 89.2405 51.6449 89.425C51.8314 89.6095 52.0843 89.7132 52.348 89.7132C52.6118 89.7132 52.8647 89.6095 53.0512 89.425C53.2377 89.2405 53.3424 88.9903 53.3424 88.7293V83.2394H62.6401V88.7293C62.6401 88.9903 62.7449 89.2405 62.9314 89.425C63.1179 89.6095 63.3708 89.7132 63.6346 89.7132C63.8983 89.7132 64.1512 89.6095 64.3377 89.425C64.5242 89.2405 64.629 88.9903 64.629 88.7293V83.2394H73.9267V88.7293C73.9267 88.9903 74.0314 89.2405 74.2179 89.425C74.4044 89.6095 74.6573 89.7132 74.9211 89.7132C75.1848 89.7132 75.4377 89.6095 75.6242 89.425C75.8107 89.2405 75.9155 88.9903 75.9155 88.7293V83.2394H85.2132V88.7293C85.2132 88.9903 85.3179 89.2405 85.5044 89.425C85.6909 89.6095 85.9438 89.7132 86.2076 89.7132C86.4713 89.7132 86.7243 89.6095 86.9107 89.425C87.0972 89.2405 87.202 88.9903 87.202 88.7293V83.2394H91.7763C92.04 83.2394 92.2929 83.1358 92.4794 82.9513C92.6659 82.7668 92.7707 82.5165 92.7707 82.2556C92.7707 81.9947 92.6659 81.7444 92.4794 81.5599C92.2929 81.3754 92.04 81.2717 91.7763 81.2717H87.2219V71.7874H91.7763C92.04 71.7874 92.2929 71.6838 92.4794 71.4992C92.6659 71.3147 92.7707 71.0645 92.7707 70.8036C92.7707 70.5426 92.6659 70.2924 92.4794 70.1079C92.2929 69.9234 92.04 69.8197 91.7763 69.8197H87.2219V60.355H91.7763C92.04 60.355 92.2929 60.2514 92.4794 60.0669C92.6659 59.8824 92.7707 59.6321 92.7707 59.3712C92.7707 59.1103 92.6659 58.86 92.4794 58.6755C92.2929 58.491 92.04 58.3873 91.7763 58.3873H87.2219V48.8932H91.7763ZM73.9764 48.8932V58.3873H64.6489V48.8932H73.9764ZM42.0559 60.355H51.3536V69.8394H42.0559V60.355ZM40.0671 69.8394H30.7893V60.355H40.0671V69.8394ZM53.3623 60.355H62.66V69.8394H53.3623V60.355ZM64.6489 60.355H73.9465V69.8394H64.6489V60.355ZM62.66 48.9129V58.3873H53.3623V48.8932L62.66 48.9129ZM51.3735 48.9129V58.3873H42.0559V48.8932L51.3735 48.9129ZM40.0671 48.8932V58.3873H30.7893V48.8932H40.0671ZM19.4829 48.8932H28.7806V58.3873H19.5028L19.4829 48.8932ZM19.4829 60.3354H28.7806V69.8197H19.5028L19.4829 60.3354ZM19.4829 81.2717V71.7874H28.7806V81.2717H19.4829ZM30.7694 81.2717V71.7874H40.0671V81.2717H30.7694ZM42.0559 81.2717V71.7874H51.3536V81.2717H42.0559ZM53.3424 81.2717V71.7874H62.6401V81.2717H53.3424ZM64.629 81.2717V71.7874H73.9267V81.2717H64.629ZM85.2132 81.2717H75.9354V71.7874H85.2331L85.2132 81.2717ZM85.2132 69.8197H75.9354V60.355H85.2331L85.2132 69.8197ZM85.2132 58.3677H75.9354V48.8932H85.2331L85.2132 58.3677ZM26.6426 52.9171L24.2362 55.2981C24.0499 55.4813 23.7978 55.5841 23.5351 55.5841C23.2724 55.5841 23.0204 55.4813 22.8341 55.2981L21.4916 53.9797C21.3044 53.7944 21.1992 53.5432 21.1992 53.2812C21.1992 53.0192 21.3044 52.7679 21.4916 52.5826C21.6789 52.3974 21.9328 52.2933 22.1976 52.2933C22.4625 52.2933 22.7164 52.3974 22.9037 52.5826L23.5301 53.2123L25.2405 51.5004C25.3297 51.3974 25.4394 51.3137 25.5627 51.2547C25.6861 51.1956 25.8205 51.1625 25.9574 51.1572C26.0944 51.152 26.2309 51.1748 26.3586 51.2243C26.4862 51.2737 26.6021 51.3488 26.699 51.4446C26.7959 51.5405 26.8717 51.6552 26.9217 51.7814C26.9717 51.9077 26.9948 52.0428 26.9895 52.1783C26.9842 52.3138 26.9507 52.4468 26.891 52.5688C26.8313 52.6909 26.7467 52.7994 26.6426 52.8876V52.9171ZM60.353 64.5856L57.9664 66.9665C57.874 67.0587 57.764 67.1319 57.6428 67.1819C57.5217 67.2318 57.3917 67.2576 57.2604 67.2576C57.1291 67.2576 56.9992 67.2318 56.878 67.1819C56.7568 67.1319 56.6468 67.0587 56.5544 66.9665L55.2219 65.6482C55.1287 65.5567 55.0547 65.4479 55.0042 65.328C54.9537 65.2081 54.9277 65.0795 54.9277 64.9496C54.9277 64.8198 54.9537 64.6912 55.0042 64.5713C55.0547 64.4514 55.1287 64.3426 55.2219 64.2511C55.4082 64.0679 55.6602 63.965 55.9229 63.965C56.1856 63.965 56.4377 64.0679 56.624 64.2511L57.2604 64.8808L58.9608 63.1885C59.1472 63.0053 59.3992 62.9024 59.6619 62.9024C59.9246 62.9024 60.1766 63.0053 60.363 63.1885C60.4555 63.2806 60.5287 63.39 60.5784 63.5102C60.628 63.6305 60.6531 63.7592 60.6521 63.8891C60.6512 64.019 60.6243 64.1474 60.573 64.267C60.5216 64.3865 60.4469 64.4948 60.353 64.5856ZM38.317 75.8507L35.9105 78.2415C35.8176 78.3327 35.7074 78.4048 35.5862 78.4538C35.4651 78.5027 35.3353 78.5275 35.2045 78.5268C35.0736 78.5275 34.9439 78.5027 34.8227 78.4538C34.7016 78.4048 34.5914 78.3327 34.4984 78.2415L33.1659 76.9133C33.003 76.7251 32.9179 76.483 32.9276 76.2353C32.9372 75.9877 33.041 75.7528 33.2181 75.5776C33.3952 75.4024 33.6326 75.2998 33.8829 75.2902C34.1331 75.2806 34.3778 75.3649 34.5681 75.526L35.2045 76.1459L36.9149 74.4635C37.1051 74.3023 37.3498 74.2181 37.6001 74.2276C37.8503 74.2372 38.0877 74.3398 38.2648 74.5151C38.4419 74.6903 38.5457 74.9252 38.5553 75.1728C38.565 75.4204 38.4799 75.6625 38.317 75.8507ZM78.3319 52.5826C78.5182 52.3994 78.7702 52.2965 79.0329 52.2965C79.2956 52.2965 79.5477 52.3994 79.734 52.5826L80.3704 53.2123L82.0708 51.5004C82.1633 51.4082 82.2733 51.335 82.3945 51.285C82.5156 51.2351 82.6456 51.2094 82.7769 51.2094C82.9081 51.2094 83.0381 51.2351 83.1593 51.285C83.2805 51.335 83.3905 51.4082 83.4829 51.5004C83.6681 51.6847 83.7721 51.9341 83.7721 52.194C83.7721 52.4539 83.6681 52.7033 83.4829 52.8876L81.0665 55.2685C80.8829 55.4539 80.6327 55.56 80.3704 55.5637C80.2388 55.5632 80.1087 55.5368 79.9875 55.4861C79.8663 55.4355 79.7565 55.3615 79.6644 55.2685L78.3319 53.9502C78.1527 53.7667 78.0525 53.5215 78.0525 53.2664C78.0525 53.0112 78.1527 52.7661 78.3319 52.5826Z" fill="#349F55"/>
</g>
</svg>
