<svg width="24" height="24" viewBox="0 0 24 24" fill="none" xmlns="http://www.w3.org/2000/svg">
<g id="&#208;&#154;&#208;&#176;&#209;&#130;&#208;&#176;&#208;&#187;&#208;&#190;&#208;&#179;">
<path id="Vector" d="M2.50447 10.0607L11.5002 15.2582C11.6522 15.346 11.8245 15.3922 12 15.3922C12.1755 15.3922 12.3478 15.346 12.4998 15.2582L21.4955 10.0607C21.647 9.97281 21.7727 9.84669 21.8601 9.69496C21.9475 9.54322 21.9935 9.37118 21.9935 9.19608C21.9935 9.02097 21.9475 8.84893 21.8601 8.6972C21.7727 8.54546 21.647 8.41935 21.4955 8.33148L12.4998 3.13391C12.3478 3.04618 12.1755 3 12 3C11.8245 3 11.6522 3.04618 11.5002 3.13391L2.50447 8.33148C2.35301 8.41935 2.22728 8.54546 2.13988 8.6972C2.05248 8.84893 2.00648 9.02097 2.00648 9.19608C2.00648 9.37118 2.05248 9.54322 2.13988 9.69496C2.22728 9.84669 2.35301 9.97281 2.50447 10.0607ZM12 5.15297L18.9967 9.1511L12 13.1992L5.0033 9.19108L12 5.15297ZM20.496 12.9393L12 17.847L3.504 12.9393C3.39052 12.8728 3.26502 12.8294 3.13471 12.8115C3.00441 12.7936 2.87184 12.8016 2.74463 12.835C2.61742 12.8684 2.49805 12.9266 2.39338 13.0063C2.2887 13.0859 2.20078 13.1855 2.13465 13.2992C2.06856 13.4132 2.02569 13.5393 2.00852 13.67C1.99134 13.8007 2.0002 13.9335 2.03457 14.0608C2.06895 14.1881 2.12816 14.3073 2.20881 14.4116C2.28946 14.5159 2.38994 14.6032 2.50447 14.6685L11.5002 19.8661C11.6522 19.9538 11.8245 20 12 20C12.1755 20 12.3478 19.9538 12.4998 19.8661L21.4955 14.6685C21.6101 14.6032 21.7105 14.5159 21.7912 14.4116C21.8718 14.3073 21.9311 14.1881 21.9654 14.0608C21.9998 13.9335 22.0087 13.8007 21.9915 13.67C21.9743 13.5393 21.9314 13.4132 21.8654 13.2992C21.7992 13.1855 21.7113 13.0859 21.6066 13.0063C21.502 12.9266 21.3826 12.8684 21.2554 12.835C21.1282 12.8016 20.9956 12.7936 20.8653 12.8115C20.735 12.8294 20.6095 12.8728 20.496 12.9393Z" fill="#257F41"/>
</g>
</svg>
