<svg width="240" height="220" viewBox="0 0 240 220" fill="none" xmlns="http://www.w3.org/2000/svg">
<g clip-path="url(#clip0_248_700)">
<path d="M343.467 91.8174C342.175 72.1405 330.234 53.3701 312.69 39.0657C302.426 30.6955 290.197 23.4347 276.955 17.8593C263.214 12.0714 248.266 5.58487 231.965 4.8909C227.941 4.72094 223.837 4.93338 219.916 5.8398C204.902 9.31913 235.396 19.9034 239.392 21.4661C196.91 9.85259 152.947 -1.9214 107.18 0.264386C98.3535 0.684548 89.2255 1.71371 81.6149 5.30162C73.9996 8.88952 68.2834 15.6168 69.7348 22.1317C70.9318 27.5183 76.4406 33.4431 71.7188 37.7769C70.371 39.0138 68.4106 39.7738 66.4879 40.4348C56.6059 43.8338 45.8616 45.7364 36.545 49.9852C22.1203 56.5709 12.6058 68.3024 8.49657 80.5249C4.38731 92.7427 5.18372 105.475 7.5635 117.759C12.0403 140.887 22.4218 163.698 42.1387 181.336C70.305 206.526 115.177 218.702 159.629 219.91C213.417 221.374 270.989 206.408 305.056 173.914C310.107 169.094 314.702 163.778 316.351 157.835C318.001 151.891 316.182 145.197 310.117 141.448C308.482 140.438 306.389 139.376 306.488 137.747C306.625 135.547 310.366 134.726 313.227 134.202C331.982 130.774 342.067 114.553 343.372 100.136C343.622 97.355 343.65 94.5791 343.471 91.8221L343.467 91.8174Z" fill="#86E7A4"/>
<path opacity="0.7" d="M343.467 91.8174C342.175 72.1405 330.234 53.3701 312.69 39.0657C302.426 30.6955 290.197 23.4347 276.955 17.8593C263.214 12.0714 248.266 5.58487 231.965 4.8909C227.941 4.72094 223.837 4.93338 219.916 5.8398C204.902 9.31913 235.396 19.9034 239.392 21.4661C196.91 9.85259 152.947 -1.9214 107.18 0.264386C98.3535 0.684548 89.2255 1.71371 81.6149 5.30162C73.9996 8.88952 68.2834 15.6168 69.7348 22.1317C70.9318 27.5183 76.4406 33.4431 71.7188 37.7769C70.371 39.0138 68.4106 39.7738 66.4879 40.4348C56.6059 43.8338 45.8616 45.7364 36.545 49.9852C22.1203 56.5709 12.6058 68.3024 8.49657 80.5249C4.38731 92.7427 5.18372 105.475 7.5635 117.759C12.0403 140.887 22.4218 163.698 42.1387 181.336C70.305 206.526 115.177 218.702 159.629 219.91C213.417 221.374 270.989 206.408 305.056 173.914C310.107 169.094 314.702 163.778 316.351 157.835C318.001 151.891 316.182 145.197 310.117 141.448C308.482 140.438 306.389 139.376 306.488 137.747C306.625 135.547 310.366 134.726 313.227 134.202C331.982 130.774 342.067 114.553 343.372 100.136C343.622 97.355 343.65 94.5791 343.471 91.8221L343.467 91.8174Z" fill="white"/>
<path d="M228.818 27.5089V204.374" stroke="#263238" stroke-miterlimit="10"/>
<path d="M228.818 13.1478V22.4811" stroke="#263238" stroke-miterlimit="10"/>
<path d="M306.516 198.912H237.799V204.114H306.516V198.912Z" stroke="#263238" stroke-miterlimit="10"/>
<path d="M240.25 204.251C240.264 204.194 240.278 204.133 240.278 204.067V177.988L253.162 169.09V193.402C253.162 193.525 253.195 193.638 253.252 193.737H254.491C254.547 193.638 254.58 193.525 254.58 193.402V168.23C254.58 168.193 254.576 168.159 254.571 168.126L265.655 160.469V183.002C265.655 183.144 265.697 183.276 265.768 183.389H266.951C267.021 183.276 267.064 183.144 267.064 183.002V159.827H275.664C276.055 159.827 276.371 159.511 276.371 159.119C276.371 158.727 276.055 158.411 275.664 158.411H266.135L265.961 158.534L238.864 177.247V204.072C238.864 204.138 238.874 204.194 238.893 204.256H240.255L240.25 204.251Z" fill="#263238"/>
<path d="M15.1505 122.088V171.927H117.147V73.1981" stroke="#263238" stroke-miterlimit="10"/>
<path d="M117.147 66.348V30.2801H15.1505V115.233" stroke="#263238" stroke-miterlimit="10"/>
<path d="M8.25146 171.936H141.83V203.548" stroke="#263238" stroke-miterlimit="10"/>
<path d="M19.9808 172.017V203.939" stroke="#263238" stroke-miterlimit="10"/>
<path d="M32.2284 133.305C32.2284 133.305 35.6779 133.14 37.3979 134.872" stroke="#263238" stroke-width="6" stroke-linecap="round" stroke-linejoin="round"/>
<path d="M66.6528 196.098C66.6528 194.696 66.8319 193.379 67.1429 192.222V187.817H70.8705C73.1984 187.817 75.0881 191.523 75.0881 196.093C75.0881 200.663 73.1984 204.369 70.8705 204.369H67.1429V199.964C66.8319 198.808 66.6528 197.491 66.6528 196.089V196.098Z" fill="#263238" stroke="#263238" stroke-miterlimit="10"/>
<path d="M67.1429 204.374C69.4723 204.374 71.3606 200.669 71.3606 196.098C71.3606 191.528 69.4723 187.823 67.1429 187.823C64.8136 187.823 62.9253 191.528 62.9253 196.098C62.9253 200.669 64.8136 204.374 67.1429 204.374Z" fill="#263238" stroke="#263238" stroke-miterlimit="10"/>
<path d="M66.7989 201.843C68.2486 201.843 69.4237 199.29 69.4237 196.14C69.4237 192.991 68.2486 190.438 66.7989 190.438C65.3493 190.438 64.1741 192.991 64.1741 196.14C64.1741 199.29 65.3493 201.843 66.7989 201.843Z" fill="#828282" stroke="#263238" stroke-miterlimit="10"/>
<path d="M37.3979 134.872C37.9729 135.448 38.3546 136.237 38.3546 137.308V196.891C38.3546 198.444 39.6128 199.705 41.1632 199.705H78.858" stroke="#263238" stroke-width="4" stroke-linecap="round" stroke-linejoin="round"/>
<path d="M61.3655 133.305C61.3655 133.305 64.815 133.14 66.535 134.872" stroke="#263238" stroke-width="6" stroke-linecap="round" stroke-linejoin="round"/>
<path d="M66.535 134.872C67.11 135.448 67.4917 136.237 67.4917 137.308V199.464" stroke="#263238" stroke-width="4" stroke-linecap="round" stroke-linejoin="round"/>
<path d="M38.6891 149.111H67.7414" stroke="#263238" stroke-width="4" stroke-linecap="round" stroke-linejoin="round"/>
<path d="M53.637 148.988V199.346" stroke="#263238" stroke-width="4" stroke-linecap="round" stroke-linejoin="round"/>
<path d="M34.1275 192.213L38.4205 183.781" stroke="#263238" stroke-width="4" stroke-linecap="round" stroke-linejoin="round"/>
<path d="M38.3357 196.084H34.2972" stroke="#263238" stroke-width="4" stroke-linecap="round" stroke-linejoin="round"/>
<path d="M27.2379 196.098C27.2379 194.696 27.417 193.379 27.728 192.222V187.817H31.4556C33.7835 187.817 35.6732 191.523 35.6732 196.093C35.6732 200.663 33.7835 204.369 31.4556 204.369H27.728V199.964C27.417 198.808 27.2379 197.491 27.2379 196.089V196.098Z" fill="#263238" stroke="#263238" stroke-miterlimit="10"/>
<path d="M27.728 204.374C30.0574 204.374 31.9457 200.669 31.9457 196.098C31.9457 191.528 30.0574 187.823 27.728 187.823C25.3987 187.823 23.5104 191.528 23.5104 196.098C23.5104 200.669 25.3987 204.374 27.728 204.374Z" fill="#263238" stroke="#263238" stroke-miterlimit="10"/>
<path d="M24.7592 196.14C24.7592 199.289 25.9326 201.843 27.384 201.843C28.8354 201.843 30.0088 199.289 30.0088 196.14C30.0088 192.992 28.8354 190.438 27.384 190.438C25.9326 190.438 24.7592 192.992 24.7592 196.14Z" fill="white" stroke="#263238" stroke-miterlimit="10"/>
<path d="M216.914 190.494L245.533 191.523L284.9 191.141L300.013 190.395C300.013 190.395 303.109 182.077 301.908 177.616C300.706 173.154 299.165 171.266 295.739 171.266C292.313 171.266 286.451 174.061 286.21 176.095C285.97 178.13 284.264 180.448 284.264 180.448H243.473C243.473 180.448 241.932 171.606 236.447 168.518C230.962 165.426 223.766 165.601 219.996 168.518C216.226 171.436 216.909 190.489 216.909 190.489L216.914 190.494Z" fill="#263238" stroke="#263238" stroke-miterlimit="10"/>
<path d="M236.428 176.1H230.066C226.089 176.1 222.866 182.431 222.866 190.239C222.866 198.048 226.089 204.378 230.066 204.378H236.428C240.405 204.378 243.629 198.048 243.629 190.239C243.629 182.431 240.405 176.1 236.428 176.1Z" fill="#263238" stroke="#263238" stroke-miterlimit="10"/>
<path d="M164.337 176.1H157.415C153.089 176.1 149.582 182.431 149.582 190.239C149.582 198.048 153.089 204.378 157.415 204.378H164.337C168.663 204.378 172.169 198.048 172.169 190.239C172.169 182.431 168.663 176.1 164.337 176.1Z" fill="#263238" stroke="#263238" stroke-miterlimit="10"/>
<path d="M231.579 187.94C231.579 185.16 231.226 182.544 230.608 180.25V171.507H223.21C218.587 171.507 214.84 178.862 214.84 187.94C214.84 197.019 218.587 204.374 223.21 204.374H230.608V195.631C231.23 193.336 231.579 190.721 231.579 187.94Z" fill="#263238" stroke="#263238" stroke-miterlimit="10"/>
<path d="M230.608 204.374C235.23 204.374 238.978 197.016 238.978 187.94C238.978 178.864 235.23 171.507 230.608 171.507C225.986 171.507 222.239 178.864 222.239 187.94C222.239 197.016 225.986 204.374 230.608 204.374Z" fill="#616161" stroke="#263238" stroke-miterlimit="10"/>
<path d="M231.287 199.355C234.165 199.355 236.499 194.287 236.499 188.035C236.499 181.782 234.165 176.714 231.287 176.714C228.408 176.714 226.075 181.782 226.075 188.035C226.075 194.287 228.408 199.355 231.287 199.355Z" fill="#E0E0E0" stroke="#263238" stroke-miterlimit="10"/>
<path d="M300.974 166.191C299.641 162.013 271.46 103.719 269.293 101.382C267.125 99.0451 226.777 86.5158 226.777 86.5158C226.777 86.5158 208.271 81.0017 202.268 80.6713C196.264 80.3361 144.743 84.6793 143.744 85.0145C142.745 85.3497 136.072 106.06 134.239 115.082C132.406 124.104 131.571 142.478 131.571 160.516C131.571 178.555 134.074 191.75 136.906 191.75C139.738 191.75 213.771 193.922 214.939 193.922C216.108 193.922 217.772 192.586 220.773 188.578C223.775 184.569 226.277 172.541 229.609 171.039C232.946 169.538 236.612 170.369 238.445 174.547C240.278 178.725 239.779 191.75 239.779 191.75C239.779 191.75 266.908 191.599 284.896 191.141C285.56 189.338 287.37 184.513 289.617 179.018C292.473 172.04 297.294 172.758 299.438 174.547C301.37 176.161 301.125 184.89 300.013 190.395C300.277 190.348 300.437 190.296 300.475 190.244C301.309 189.073 302.143 185.901 302.808 181.727C303.477 177.549 302.308 170.369 300.974 166.191Z" fill="white" stroke="#263238" stroke-miterlimit="10"/>
<path d="M239.783 191.75C239.783 191.75 266.913 191.599 284.9 191.141C285.565 189.338 287.374 184.513 289.622 179.018C292.478 172.04 297.299 172.758 299.443 174.547C301.375 176.161 301.13 184.89 300.018 190.395C300.282 190.348 300.442 190.296 300.48 190.244C301.314 189.073 302.148 185.901 302.812 181.727C303.481 177.549 302.313 170.369 300.979 166.191C299.646 162.013 271.465 103.719 269.297 101.382C267.13 99.0451 226.782 86.5158 226.782 86.5158C226.782 86.5158 208.276 81.0017 202.272 80.6713C202.239 80.6713 202.197 80.6713 202.159 80.6713L202.385 81.7287C202.385 81.7287 207.371 91.3736 206.415 193.69C211.457 193.832 214.704 193.922 214.939 193.922C216.108 193.922 217.772 192.586 220.773 188.578C223.775 184.569 226.277 172.541 229.609 171.039C232.946 169.538 236.612 170.369 238.445 174.547C240.278 178.725 239.779 191.75 239.779 191.75H239.783Z" fill="#E0E0E0" stroke="#263238" stroke-miterlimit="10"/>
<path d="M229.143 171.327H131.897C132.66 183.587 134.682 191.745 136.911 191.745C139.743 191.745 213.775 193.917 214.944 193.917C216.113 193.917 217.776 192.581 220.778 188.573C223.634 184.754 226.042 173.674 229.143 171.327Z" fill="#263238" stroke="#263238" stroke-miterlimit="10"/>
<path d="M165.69 83.8673V84.1033C165.69 84.9059 166.378 85.5432 167.179 85.4724L176.684 84.6793C177.395 84.6179 177.942 84.0231 177.942 83.3102V83.0742C177.942 82.2669 177.254 81.6343 176.453 81.7051L166.948 82.4982C166.236 82.5596 165.69 83.1544 165.69 83.8673Z" stroke="#263238" stroke-miterlimit="10"/>
<path d="M202.385 81.724C202.385 81.724 204.572 127.451 204.572 133.635C204.572 139.82 205.213 185.802 205.213 185.802L229.642 186.061C229.642 186.061 231.701 171.634 231.701 156.565C231.701 141.496 229.388 105.428 228.101 94.8671C226.815 84.3064 225.142 76.3185 225.142 76.3185L202.385 81.7287V81.724Z" fill="white" stroke="#263238" stroke-miterlimit="10"/>
<path d="M207.013 143.294L225.015 142.52C225.015 142.52 225.915 156.301 225.015 166.092C224.114 175.883 223.728 178.328 223.214 178.843C222.701 179.358 207.013 178.843 207.013 178.843C207.013 178.843 205.986 177.814 205.986 176.138C205.986 174.462 205.599 145.612 205.599 144.711C205.599 143.809 206.113 143.681 207.013 143.294Z" fill="#263238" stroke="#263238" stroke-miterlimit="10"/>
<path d="M204.699 89.7118L205.213 95.5091L223.087 92.804C223.087 92.804 222.96 91.2603 221.801 88.8101C220.641 86.36 219.1 85.5905 219.1 85.5905L205.986 88.5552" stroke="#263238" stroke-miterlimit="10"/>
<path d="M221.414 78.764C221.414 78.764 224.374 86.6196 226.687 107.873C229.001 129.127 229.901 172.404 228.101 181.166C228.101 181.166 228.101 182.582 226.687 183.611C225.274 184.64 206.886 184.253 206.886 184.253" stroke="#263238" stroke-miterlimit="10"/>
<path d="M222.182 98.082C222.182 98.082 222.955 95.764 224.623 112.637C226.296 129.509 226.424 135.821 225.651 136.336C224.878 136.85 208.422 137.752 208.422 137.752" stroke="#263238" stroke-miterlimit="10"/>
<path d="M217.168 97.9546C217.168 97.9546 206.881 99.1159 206.113 100.018C205.34 100.919 207.013 108.26 207.399 120.242C207.786 132.219 207.786 135.056 207.786 135.056" stroke="#263238" stroke-miterlimit="10"/>
<path d="M221.928 101.434L209.072 103.497C209.072 103.497 207.786 103.884 208.045 105.3C208.304 106.717 209.972 125.01 209.586 134.41" stroke="#263238" stroke-miterlimit="10"/>
<path d="M126.275 119.35V164.959" stroke="#263238" stroke-miterlimit="10"/>
<path d="M128.254 114.147L128.353 108.303C128.353 108.303 124.267 87.3561 123.975 86.9643C123.683 86.5724 90.3234 86.2844 89.937 86.478C89.5459 86.6715 89.8381 88.7204 89.8381 88.7204C89.8381 88.7204 90.2292 95.443 90.5167 116.975C90.8088 138.507 90.4177 182.549 90.4177 182.549L127.665 182.842C127.665 182.842 127.274 179.919 127.858 170.274C128.442 160.63 128.537 116.395 128.537 116.003V114.737L128.244 114.152L128.254 114.147Z" fill="white" stroke="#263238" stroke-miterlimit="10"/>
<path d="M91.7042 87.9745C91.7042 87.9745 120.2 88.4041 120.968 88.5741C121.737 88.7441 122.25 90.2878 122.509 91.147C122.764 92.0062 126.359 107.694 126.619 110.007" stroke="#263238" stroke-miterlimit="10"/>
<path d="M126.275 171.044C126.275 171.044 126.444 176.704 125.846 177.904C125.247 179.103 124.564 179.447 123.622 179.617C122.679 179.787 91.3602 179.273 91.3602 179.273" stroke="#263238" stroke-miterlimit="10"/>
<path d="M93.9285 144.73L93.4996 176.02L124.05 176.449C124.05 176.449 124.734 145.414 124.649 144.989C124.564 144.56 124.564 144.13 122.853 143.96C121.143 143.79 95.6391 143.53 95.215 143.53C94.7908 143.53 94.1028 144.045 93.9332 144.73H93.9285Z" fill="#263238" stroke="#263238" stroke-miterlimit="10"/>
<path d="M96.4921 94.2345C96.4921 94.2345 93.6693 98.1765 93.4101 99.1207C93.1509 100.065 93.4101 100.749 94.0934 100.834C94.7767 100.919 120.62 100.834 120.62 100.834C120.62 100.834 121.562 100.664 121.477 99.2056" stroke="#263238" stroke-miterlimit="10"/>
<path d="M98.2073 93.9749H119.427C119.427 93.9749 120.111 93.9749 120.54 95.7735" stroke="#263238" stroke-miterlimit="10"/>
<path d="M100.088 106.75C100.088 106.75 98.033 107.434 97.9482 109.323C97.8634 111.211 98.377 136.756 98.377 136.756" stroke="#263238" stroke-miterlimit="10"/>
<path d="M103.339 106.665C103.339 106.665 119.428 107.094 120.455 107.264C121.482 107.434 122.425 108.548 122.679 109.408C122.934 110.267 122.934 135.467 122.934 135.467" stroke="#263238" stroke-miterlimit="10"/>
<path d="M101.115 104.776C101.115 104.776 97.6937 104.691 96.1527 105.636C94.6118 106.58 94.871 109.063 94.9558 110.007C95.0406 110.951 95.2998 136.326 95.2998 136.326C95.2998 136.326 95.2998 137.355 96.6711 137.44C98.0424 137.525 120.888 137.525 120.888 137.525C120.888 137.525 121.831 137.525 122.345 136.756" stroke="#263238" stroke-miterlimit="10"/>
<path d="M104.451 104.436C104.451 104.436 120.28 104.866 121.737 105.551C123.193 106.235 122.934 107.524 123.018 108.123" stroke="#263238" stroke-miterlimit="10"/>
<path d="M134.87 114.44H127.382V117.07H134.87V114.44Z" stroke="#263238" stroke-miterlimit="10"/>
<path d="M132.146 113.661H129.616V118.047H132.146V113.661Z" stroke="#263238" stroke-miterlimit="10"/>
<path d="M134.187 166.762H126.699V169.392H134.187V166.762Z" stroke="#263238" stroke-miterlimit="10"/>
<path d="M131.468 165.983H128.937V170.369H131.468V165.983Z" stroke="#263238" stroke-miterlimit="10"/>
<path d="M202.343 85.3969L145.61 89.7118C145.61 89.7118 140.728 114.459 140.728 114.893C140.728 115.328 139.149 155.035 139.724 164.68C140.299 174.325 140.44 182.379 140.44 182.379L204.784 184.248L202.343 85.3969Z" fill="white" stroke="#263238" stroke-miterlimit="10"/>
<path d="M202.343 85.3969L145.61 89.7118C145.61 89.7118 140.728 114.459 140.728 114.893C140.728 115.328 139.149 155.035 139.724 164.68C140.299 174.325 140.44 182.379 140.44 182.379L204.784 184.248L202.343 85.3969Z" fill="#263238" stroke="#263238" stroke-miterlimit="10"/>
<path d="M183.795 183.635V153.119H171.255V183.271L183.795 183.635Z" fill="#86E7A4" stroke="#263238" stroke-miterlimit="10"/>
<path d="M145.605 182.525L171.255 183.271V153.119H145.605V182.525Z" fill="#86E7A4" stroke="#263238" stroke-miterlimit="10"/>
<path d="M155.746 167.494H161.114V153.114H155.746V167.494Z" fill="white" stroke="#263238" stroke-miterlimit="10"/>
<path d="M197.494 184.032H204.779L204.676 179.773L204.016 153.119H173.215V183.328L197.494 184.032Z" fill="#86E7A4" stroke="#263238" stroke-miterlimit="10"/>
<path d="M197.494 184.032H198.865V153.119H173.215V183.328L197.494 184.032Z" fill="#86E7A4" stroke="#263238" stroke-miterlimit="10"/>
<path d="M184.723 161.144H176.118V166.956H184.723V161.144Z" fill="white" stroke="#263238" stroke-miterlimit="10"/>
<path d="M183.357 157.745H188.724V153.114H183.357V157.745Z" fill="white" stroke="#263238" stroke-miterlimit="10"/>
<path d="M233.53 157.231L295.343 164.373" stroke="#263238" stroke-miterlimit="10"/>
<path d="M234.124 159.464L288.359 165.266L292.666 164.968" stroke="#263238" stroke-miterlimit="10"/>
<path d="M234.421 163.481C234.421 163.481 238.879 165.86 241.254 174.495" stroke="#263238" stroke-miterlimit="10"/>
<path d="M232.192 114.36L271.715 123.438" stroke="#263238" stroke-miterlimit="10"/>
<path d="M232.785 111.829C232.785 111.829 273.944 121.205 277.36 122.994" stroke="#263238" stroke-miterlimit="10"/>
<path d="M151.844 153.326H184.978V129.245H151.844V153.326Z" fill="#86E7A4" stroke="#263238" stroke-miterlimit="10"/>
<path d="M151.844 153.326H171.825V129.245H151.844V153.326Z" fill="#86E7A4" stroke="#263238" stroke-miterlimit="10"/>
<path d="M159.747 140.443H163.927V129.245H159.747V140.443Z" fill="white" stroke="#263238" stroke-miterlimit="10"/>
<path d="M202.834 105.263H180.063V129.344H203.427L202.834 105.263Z" fill="#86E7A4" stroke="#263238" stroke-miterlimit="10"/>
<path d="M180.058 129.344H200.039V105.263H180.058V129.344Z" fill="#86E7A4" stroke="#263238" stroke-miterlimit="10"/>
<path d="M198.568 118.788H189.963V124.599H198.568V118.788Z" fill="white" stroke="#263238" stroke-miterlimit="10"/>
<path d="M187.961 116.461H192.141V105.263H187.961V116.461Z" fill="white" stroke="#263238" stroke-miterlimit="10"/>
<path d="M203.427 129.245H177.282V153.326H204.021L203.427 129.245Z" fill="#86E7A4" stroke="#263238" stroke-miterlimit="10"/>
<path d="M177.282 153.326H197.263V129.245H177.282V153.326Z" fill="#86E7A4" stroke="#263238" stroke-miterlimit="10"/>
<path d="M185.185 140.443H189.365V129.245H185.185V140.443Z" fill="white" stroke="#263238" stroke-miterlimit="10"/>
<path d="M147.377 126.082H178.083V103.761H147.377V126.082Z" fill="#86E7A4" stroke="#263238" stroke-miterlimit="10"/>
<path d="M147.377 126.082H165.892V103.761H147.377V126.082Z" fill="#86E7A4" stroke="#263238" stroke-miterlimit="10"/>
<path d="M154.7 114.143H158.574V103.761H154.7V114.143Z" fill="white" stroke="#263238" stroke-miterlimit="10"/>
<path d="M128.852 103.469C128.852 103.469 128.57 104.375 129.022 105.617C129.474 106.863 130.21 109.011 130.662 109.691C131.114 110.371 131.001 111.334 131.001 111.334L137.325 114.275C137.325 114.275 137.438 111.9 137.665 111.787C137.891 111.674 139.639 111.674 140.035 111.05C140.431 110.427 139.978 107.316 139.978 107.316C139.978 107.316 140.318 106.976 140.374 106.636C140.431 106.296 139.526 105.503 139.639 104.88C139.752 104.257 140.035 103.577 139.583 102.675C139.13 101.769 137.801 99.5786 135.709 98.8987C133.621 98.2189 131.369 99.0073 130.469 99.9704C129.564 100.933 128.796 102.052 128.852 103.469Z" fill="white" stroke="#263238" stroke-miterlimit="10"/>
<path d="M138.235 104.12C138.395 103.893 138.687 103.181 138.687 102.694C138.687 102.208 138.042 102.142 136.972 102.567C136.119 102.902 130.968 104.715 129.017 105.607V105.617C129.451 106.816 130.148 108.85 130.601 109.606C130.775 109.818 130.921 109.969 131.011 110.021C131.529 110.314 132.952 109.729 133.471 108.95C133.895 108.308 134.083 106.414 134.135 105.768C134.144 105.631 134.149 105.546 134.149 105.546C134.342 105.026 135.12 104.993 135.671 105.286C136.223 105.579 136.741 105.612 137.094 105.48C137.453 105.352 137.547 104.96 137.547 104.734C137.547 104.507 138.065 104.347 138.225 104.12H138.235Z" fill="#263238" stroke="#263238" stroke-miterlimit="10"/>
<path d="M136.194 105.805C136.194 105.805 135.417 104.672 134.738 105.612C134.06 106.551 135.191 107.85 135.643 108.076C136.095 108.303 136.289 108.043 136.421 107.689" fill="white"/>
<path d="M136.194 105.805C136.194 105.805 135.417 104.672 134.738 105.612C134.06 106.551 135.191 107.85 135.643 108.076C136.095 108.303 136.289 108.043 136.421 107.689" stroke="#263238" stroke-miterlimit="10"/>
<path d="M135.709 98.9039C133.621 98.2241 131.369 99.0125 130.469 99.9756C129.564 100.939 128.796 102.058 128.852 103.474C128.852 103.474 128.57 104.38 129.022 105.622C129.149 105.971 129.3 106.396 129.46 106.84L129.498 106.849C129.498 106.849 131.407 107.269 133.513 106.236C135.619 105.202 139.012 103.318 139.338 102.7C139.371 102.633 139.437 102.582 139.517 102.544C139.008 101.571 137.707 99.5554 135.714 98.9086L135.709 98.9039Z" fill="#86E7A4" stroke="#263238" stroke-miterlimit="10"/>
<path d="M138.037 103.832C138.037 103.832 140.563 103.898 141.92 103.218C143.277 102.539 143.051 101.273 142.792 101.174C142.533 101.075 138.942 101.533 138.942 101.533C138.942 101.533 139.234 102.959 138.037 103.837V103.832Z" fill="#86E7A4" stroke="#263238" stroke-miterlimit="10"/>
<path d="M139.319 105.338C139.319 105.631 139.229 105.872 139.116 105.872C139.003 105.872 138.913 105.631 138.913 105.338C138.913 105.045 139.003 104.805 139.116 104.805C139.229 104.805 139.319 105.045 139.319 105.338Z" fill="#263238"/>
<path d="M138.357 115.507C138.357 115.507 137.401 113.859 136.303 112.991C135.205 112.122 132.377 111.069 131.279 110.98C130.181 110.89 130.502 111.485 130.365 112.122C130.228 112.764 130.092 112.991 130.455 113.08C130.822 113.17 132.556 113.491 134.795 114.544C137.033 115.597 138.174 116.239 138.4 116.097C138.626 115.96 138.353 115.502 138.353 115.502L138.357 115.507Z" fill="#263238" stroke="#263238" stroke-miterlimit="10"/>
<path d="M134.319 197.972C134.319 197.972 135.912 200.592 136.807 201.102C137.698 201.612 139.422 202.188 139.55 203.146C139.677 204.105 138.527 204.039 137.957 204.039C137.387 204.039 133.621 204.166 132.98 203.911C132.344 203.656 130.813 202.504 129.088 201.546C127.368 200.588 125.836 200.46 125.836 198.864C125.836 197.269 127.302 196.948 127.556 196.693C127.811 196.438 134.319 197.972 134.319 197.972Z" fill="white" stroke="#263238" stroke-miterlimit="10"/>
<path d="M128.325 153.378C128.325 153.378 129.917 168.457 129.983 169.222C130.049 169.986 128.961 172.734 128.518 175.165C128.07 177.592 127.495 184.3 127.495 184.3L127.688 197.524C127.688 197.524 131.515 198.416 132.09 198.355C132.665 198.288 134.13 198.033 134.324 197.972C134.517 197.906 135.601 197.524 135.601 197.524C135.601 197.524 135.346 193.114 135.346 191.707C135.346 190.301 136.237 181.293 136.43 180.401C136.623 179.509 138.852 166.347 139.173 159.383C139.493 152.42 138.343 146.604 138.343 146.604L127.373 147.18L128.329 153.378H128.325Z" fill="#86E7A4" stroke="#263238" stroke-miterlimit="10"/>
<path d="M131.067 198.227C131.067 198.227 132.024 200.526 132.472 200.909C132.919 201.291 135.723 202.377 135.85 202.891C135.978 203.401 135.469 203.85 134.767 204.043C134.064 204.237 129.027 204.237 128.004 203.722C126.982 203.212 123.796 200.847 122.901 200.465C122.01 200.082 120.54 199.573 120.921 197.972C121.303 196.372 123.216 195.163 123.216 195.163L131.063 198.232L131.067 198.227Z" fill="white" stroke="#263238" stroke-miterlimit="10"/>
<path d="M126.473 146.028C126.473 146.028 125.836 149.158 126.793 151.584C127.75 154.011 130.426 157.268 130.874 157.91C131.322 158.548 130.747 165.96 130.426 168.835C130.106 171.71 129.597 176.567 129.597 176.756C129.597 176.945 126.854 183.975 125.705 187.232C124.555 190.489 122.641 195.154 122.641 195.154C122.641 195.154 125.191 197.07 126.468 197.453C127.745 197.835 131.058 198.218 131.058 198.218C131.058 198.218 131.378 196.683 131.694 196.046C132.014 195.409 131.628 195.154 132.014 193.426C132.401 191.698 136.67 182.502 138.263 179.882C139.856 177.261 140.813 172.47 141.454 170.104C142.09 167.739 142.09 158.094 142.217 154.771C142.344 151.447 141.26 147.68 141.26 147.68L140.94 146.467L126.463 146.018L126.473 146.028Z" fill="#86E7A4" stroke="#263238" stroke-miterlimit="10"/>
<path d="M136.991 164.874C136.887 165.804 136.76 166.776 136.604 167.782" stroke="#263238" stroke-miterlimit="10"/>
<path d="M136.166 147.449C136.166 147.449 135.733 148.176 135.874 149.337C136.02 150.498 137.033 150.933 137.613 151.66C138.192 152.387 137.033 152.675 136.741 153.548C136.449 154.422 137.321 155.144 137.321 155.729C137.321 156.131 137.462 158.708 137.208 162.381" stroke="#263238" stroke-miterlimit="10"/>
<path d="M126.025 143.729C126.025 143.729 125.516 146.221 125.959 146.476C126.407 146.731 140.502 146.542 140.945 146.476C141.387 146.41 141.647 146.349 141.708 145.773C141.774 145.197 141.453 143.663 141.453 143.663L126.02 143.729H126.025Z" fill="#263238" stroke="#263238" stroke-miterlimit="10"/>
<path d="M130.459 113.085C130.459 113.085 126.166 115.691 125.115 119.076C124.065 122.461 125.53 137.525 125.53 137.525C125.53 137.525 124.328 142.733 125.45 143.776C126.572 144.819 140.888 144.578 141.529 144.097C142.17 143.615 142.65 142.652 142.65 141.614C142.65 140.575 142.971 131.435 142.971 126.308C142.971 121.182 140.544 117.872 139.451 116.692C138.362 115.512 137.613 115.328 137.613 115.328C137.613 115.328 131.873 113.085 130.464 113.085H130.459Z" fill="#86E7A4" stroke="#263238" stroke-miterlimit="10"/>
<path d="M127.703 124.165C127.981 124.713 128.334 125.308 128.772 125.95" stroke="#263238" stroke-miterlimit="10"/>
<path d="M127.321 118.831C127.321 118.831 126.449 119.704 126.826 121.734" stroke="#263238" stroke-miterlimit="10"/>
<path d="M137.438 116.796C137.438 116.796 140.11 116.262 141.896 117.202C143.682 118.141 146.571 121.012 147.349 121.399C148.126 121.786 149.469 123.112 150.581 123.405C151.694 123.698 153.536 124.316 153.536 124.316C153.536 124.316 158.946 123.939 159.578 123.887C160.214 123.835 164.7 123.915 164.7 123.915C164.7 123.915 164.959 124.727 165.035 125.681C165.115 126.634 165.035 127.281 165.035 127.281C165.035 127.281 163.385 128.249 162.947 128.348C162.509 128.447 158.626 129.471 155.252 130.515C151.882 131.558 146.656 130.727 143.122 129.826C139.587 128.924 131.355 125.501 130.935 125.303" fill="#86E7A4"/>
<path d="M137.438 116.796C137.438 116.796 140.11 116.262 141.896 117.202C143.682 118.141 146.571 121.012 147.349 121.399C148.126 121.786 149.469 123.112 150.581 123.405C151.694 123.698 153.536 124.316 153.536 124.316C153.536 124.316 158.946 123.939 159.578 123.887C160.214 123.835 164.7 123.915 164.7 123.915C164.7 123.915 164.959 124.727 165.035 125.681C165.115 126.634 165.035 127.281 165.035 127.281C165.035 127.281 163.385 128.249 162.947 128.348C162.509 128.447 158.626 129.471 155.252 130.515C151.882 131.558 146.656 130.727 143.122 129.826C139.587 128.924 131.355 125.501 130.935 125.303" stroke="#263238" stroke-miterlimit="10"/>
<path d="M148.089 127.649C147.363 127.866 146.618 128.041 145.883 128.126" stroke="#263238" stroke-miterlimit="10"/>
<path d="M153.423 125.223C153.423 125.223 151.736 126.285 149.549 127.139" stroke="#263238" stroke-miterlimit="10"/>
<path d="M138.079 127.819C138.079 127.819 135.464 132.804 132.274 135.037" stroke="#263238" stroke-miterlimit="10"/>
<path d="M134.573 135.996C133.923 136.737 133.249 137.436 132.594 137.979" stroke="#263238" stroke-miterlimit="10"/>
<path d="M138.207 131.143C138.207 131.143 137.062 132.922 135.572 134.797" stroke="#263238" stroke-miterlimit="10"/>
<path d="M164.7 123.92C164.7 123.92 165.694 122.81 166.354 122.225C167.014 121.639 167.81 121.276 168.201 121.007C168.592 120.738 168.842 119.477 169.408 119.902C169.973 120.327 169.832 120.757 169.624 121.125C169.417 121.498 168.951 122.244 168.795 122.551L168.644 122.857C168.644 122.857 170.27 123.259 170.977 123.259C171.684 123.259 173.639 123.334 173.729 123.684C173.819 124.033 173.55 124.406 173.376 124.42C173.201 124.434 170.793 124.633 170.793 124.633C170.793 124.633 172.777 125.77 172.791 125.95C172.805 126.124 172.362 126.46 171.844 126.62C171.326 126.781 170.553 127.437 169.733 127.503C168.913 127.569 166.538 127.408 166.236 127.314C165.935 127.22 165.035 127.281 165.035 127.281L164.695 123.91L164.7 123.92Z" fill="white" stroke="#263238" stroke-miterlimit="10"/>
<path d="M169.935 125.6L171.849 126.625" stroke="#263238" stroke-miterlimit="10"/>
<path d="M169.191 126.606L170.416 127.153" stroke="#263238" stroke-miterlimit="10"/>
<path d="M83.7025 204.218H126.237V173.301H83.7025V204.218Z" fill="#86E7A4" stroke="#263238" stroke-miterlimit="10"/>
<path d="M83.7025 204.218H109.352V173.301H83.7025V204.218Z" fill="#86E7A4" stroke="#263238" stroke-miterlimit="10"/>
<path d="M93.8436 187.68H99.2111V173.301H93.8436V187.68Z" fill="white" stroke="#263238" stroke-miterlimit="10"/>
<path d="M77.6375 167.971H43.133V198.888H77.6375V167.971Z" fill="#86E7A4" stroke="#263238" stroke-miterlimit="10"/>
<path d="M77.6423 167.971H56.8321V198.888H77.6423V167.971Z" fill="#86E7A4" stroke="#263238" stroke-miterlimit="10"/>
<path d="M69.4096 167.971H65.0553V182.351H69.4096V167.971Z" fill="white" stroke="#263238" stroke-miterlimit="10"/>
<path d="M348 204.142H0" stroke="#263238" stroke-miterlimit="10"/>
</g>
<defs>
<clipPath id="clip0_248_700">
<rect width="240" height="220" fill="white"/>
</clipPath>
</defs>
</svg>
