<svg width="103" height="103" viewBox="0 0 103 103" fill="none" xmlns="http://www.w3.org/2000/svg">
<g id="Group">
<path id="Vector" d="M86.8299 56.4108V42.8027C86.8299 42.4256 86.6783 42.064 86.4085 41.7973C86.1386 41.5307 85.7726 41.3809 85.391 41.3809H63.1811L56.7961 50.8451H4.96232C4.58071 50.8451 4.21472 50.9949 3.94488 51.2616C3.67503 51.5283 3.52344 51.8899 3.52344 52.267V93.1795C3.52344 96.6572 6.37634 99.4764 9.89565 99.4764H89.167C85.6409 99.4764 86.8303 96.6514 86.8303 93.1669L86.8299 67.0502" fill="#D8E7DC"/>
<path id="Vector_2" d="M13 7.31245V2.42255C13 2.04526 13.1509 1.68343 13.4196 1.41665C13.6883 1.14988 14.0527 1 14.4326 1H94.2103C94.5902 1 94.9546 1.14988 95.2233 1.41665C95.492 1.68343 95.6429 2.04526 95.6429 2.42255V16.7813M95.6429 45.1876H100.567C100.947 45.1876 101.312 45.3374 101.58 45.6042C101.849 45.871 102 46.2328 102 46.6101V95.6875C102 99.1738 99.1538 102 95.6429 102C92.132 102 89.2858 99.1738 89.2858 95.6875" stroke="#349F55" stroke-width="2" stroke-miterlimit="10" stroke-linecap="round" stroke-linejoin="round"/>
<path id="Vector_3" d="M7 27.0568V8.43241C7 8.05251 7.15093 7.68817 7.4196 7.41954C7.68827 7.15091 8.05266 7 8.43261 7H86.4643L96 16.5343V93.3398C96 94.8091 94.8089 96 93.3394 96H89.6433M7 48.25V33.7454" stroke="#349F55" stroke-width="2" stroke-miterlimit="10" stroke-linecap="round" stroke-linejoin="round"/>
<path id="Vector_4" d="M86.4999 7V15.0727C86.4999 15.4512 86.6503 15.8142 86.9179 16.0819C87.1856 16.3495 87.5486 16.4999 87.9271 16.4999H95.9998M89.6667 53.7534V40.094C89.6667 39.7155 89.5164 39.3525 89.2487 39.0848C88.981 38.8172 88.618 38.6668 88.2395 38.6668H61.1668L54.8335 48.1667H2.42724C2.04871 48.1667 1.68569 48.3171 1.41803 48.5848C1.15037 48.8524 1 49.2154 1 49.594V95.6794C1 99.1702 3.82981 102 7.32064 102H96V102C92.5024 102 89.6671 99.1643 89.6671 95.6667H89.6667V60.4177M16.8334 19.6668H70.6667M16.8334 30.3166H51.6666M16.8334 36.6499H51.6666" stroke="#349F55" stroke-width="2" stroke-miterlimit="10" stroke-linecap="round" stroke-linejoin="round"/>
<path id="Vector_5" d="M21.6695 92H11.4085C11.0349 92 10.6767 91.8575 10.4125 91.604C10.1484 91.3504 10 91.0065 10 90.6479V81.3521C10 80.9935 10.1484 80.6496 10.4125 80.396C10.6767 80.1425 11.0349 80 11.4085 80H33.5915C33.9651 80 34.3233 80.1425 34.5875 80.396C34.8516 80.6496 35 80.9935 35 81.3521V90.6479C35 91.0065 34.8516 91.3504 34.5875 91.604C34.3233 91.8575 33.9651 92 33.5915 92H28.2462" stroke="#349F55" stroke-width="2" stroke-miterlimit="10" stroke-linecap="round" stroke-linejoin="round"/>
</g>
</svg>
