<svg width="64" height="64" viewBox="0 0 64 64" fill="none" xmlns="http://www.w3.org/2000/svg">
<path d="M31.4787 36.5694C26.9317 36.5694 24.6582 31.0703 27.889 27.9622L47.7523 8.11787C70.607 24.0172 59.3591 60 31.4787 60L3 60L3 31.5485C3 12.1824 22.0257 -1.5652 40.3334 4.41201L31.4787 13.2583C21.5471 13.1387 13.2906 21.7459 13.0513 29.9944L13.0513 49.7192L29.9232 49.7192C33.1539 49.7192 35.3078 49.5997 38.4189 48.2847C49.5471 43.6225 52.1796 31.1899 47.5129 22.4632L35.1881 34.7762C34.3505 35.9716 32.9146 36.5694 31.4787 36.5694Z" fill="#349F55" fill-opacity="0.2"/>
<path d="M20.6724 24.4H24.0024V37H20.6724V24.4ZM25.4899 32.86C25.4899 31.276 25.9759 30.082 26.9479 29.278C27.9319 28.474 29.1079 28.072 30.4759 28.072C31.4239 28.072 32.3119 28.27 33.1399 28.666V31.276C32.4559 30.88 31.7239 30.682 30.9439 30.682C30.2719 30.682 29.7199 30.844 29.2879 31.168C28.8559 31.492 28.6399 31.996 28.6399 32.68C28.6399 33.328 28.8559 33.82 29.2879 34.156C29.7199 34.492 30.2539 34.66 30.8899 34.66C31.7779 34.66 32.5579 34.468 33.2299 34.084V36.694C32.3059 37.078 31.3159 37.27 30.2599 37.27C28.9399 37.27 27.8119 36.898 26.8759 36.154C25.9519 35.398 25.4899 34.3 25.4899 32.86ZM35.7001 36.082C34.7761 35.278 34.3141 34.144 34.3141 32.68C34.3141 31.216 34.7761 30.088 35.7001 29.296C36.6361 28.492 37.7941 28.09 39.1741 28.09C40.5541 28.09 41.7061 28.492 42.6301 29.296C43.5661 30.088 44.0341 31.216 44.0341 32.68C44.0341 34.144 43.5661 35.278 42.6301 36.082C41.7061 36.874 40.5541 37.27 39.1741 37.27C37.7941 37.27 36.6361 36.874 35.7001 36.082ZM40.4701 34.03C40.7461 33.67 40.8841 33.22 40.8841 32.68C40.8841 32.14 40.7461 31.69 40.4701 31.33C40.1941 30.97 39.7621 30.79 39.1741 30.79C38.5861 30.79 38.1541 30.97 37.8781 31.33C37.6021 31.69 37.4641 32.14 37.4641 32.68C37.4641 33.22 37.6021 33.67 37.8781 34.03C38.1541 34.39 38.5861 34.57 39.1741 34.57C39.7621 34.57 40.1941 34.39 40.4701 34.03Z" fill="#349F55"/>
</svg>
