<svg width="24" height="25" viewBox="0 0 24 25" fill="none" xmlns="http://www.w3.org/2000/svg">
<g id="&#208;&#146;&#208;&#184;&#208;&#177;&#208;&#181;&#209;&#128;">
<g id="instagram">
<path d="M12 2.41867C15.1807 2.41867 15.6145 2.41867 16.9157 2.41867C18.0723 2.41867 18.6506 2.70783 19.0843 2.85241C19.6627 3.14157 20.0964 3.28615 20.5301 3.71988C20.9639 4.15362 21.253 4.58735 21.3976 5.16566C21.5422 5.5994 21.6867 6.17771 21.8313 7.33434C21.8313 8.63554 21.8313 8.9247 21.8313 12.25C21.8313 15.5753 21.8313 15.8645 21.8313 17.1657C21.8313 18.3223 21.5422 18.9006 21.3976 19.3343C21.1084 19.9127 20.9639 20.3464 20.5301 20.7801C20.0964 21.2139 19.6627 21.503 19.0843 21.6476C18.6506 21.7922 18.0723 21.9367 16.9157 22.0813C15.6145 22.0813 15.3253 22.0813 12 22.0813C8.6747 22.0813 8.38554 22.0813 7.08434 22.0813C5.92771 22.0813 5.3494 21.7922 4.91566 21.6476C4.33735 21.3584 3.90362 21.2139 3.46988 20.7801C3.03615 20.3464 2.74699 19.9127 2.60241 19.3343C2.45783 18.9006 2.31325 18.3223 2.16867 17.1657C2.16867 15.8645 2.16867 15.5753 2.16867 12.25C2.16867 8.9247 2.16867 8.63554 2.16867 7.33434C2.16867 6.17771 2.45783 5.5994 2.60241 5.16566C2.89157 4.58735 3.03615 4.15362 3.46988 3.71988C3.90362 3.28615 4.33735 2.99699 4.91566 2.85241C5.3494 2.70783 5.92771 2.56325 7.08434 2.41867C8.38554 2.41867 8.81928 2.41867 12 2.41867ZM12 0.25C8.6747 0.25 8.38554 0.25 7.08434 0.25C5.78313 0.25 4.91566 0.539157 4.19277 0.828314C3.46988 1.11747 2.74699 1.55121 2.0241 2.2741C1.30121 2.99699 1.01205 3.5753 0.578314 4.44277C0.289157 5.16566 0.144578 6.03313 0 7.33434C0 8.63554 0 9.06928 0 12.25C0 15.5753 0 15.8645 0 17.1657C0 18.4669 0.289157 19.3343 0.578314 20.0572C0.867471 20.7801 1.30121 21.503 2.0241 22.2259C2.74699 22.9488 3.3253 23.238 4.19277 23.6717C4.91566 23.9608 5.78313 24.1054 7.08434 24.25C8.38554 24.25 8.81928 24.25 12 24.25C15.1807 24.25 15.6145 24.25 16.9157 24.25C18.2169 24.25 19.0843 23.9608 19.8072 23.6717C20.5301 23.3825 21.253 22.9488 21.9759 22.2259C22.6988 21.503 22.988 20.9247 23.4217 20.0572C23.7108 19.3343 23.8554 18.4669 24 17.1657C24 15.8645 24 15.4307 24 12.25C24 9.06928 24 8.63554 24 7.33434C24 6.03313 23.7108 5.16566 23.4217 4.44277C23.1325 3.71988 22.6988 2.99699 21.9759 2.2741C21.253 1.55121 20.6747 1.26205 19.8072 0.828314C19.0843 0.539157 18.2169 0.394578 16.9157 0.25C15.6145 0.25 15.3253 0.25 12 0.25Z" fill="#349F55"/>
<path d="M12 6.03313C8.53012 6.03313 5.78313 8.78012 5.78313 12.25C5.78313 15.7199 8.53012 18.4669 12 18.4669C15.4699 18.4669 18.2169 15.7199 18.2169 12.25C18.2169 8.78012 15.4699 6.03313 12 6.03313ZM12 16.2982C9.83133 16.2982 7.95181 14.5633 7.95181 12.25C7.95181 10.0813 9.68675 8.20181 12 8.20181C14.1687 8.20181 16.0482 9.93675 16.0482 12.25C16.0482 14.4187 14.1687 16.2982 12 16.2982Z" fill="#349F55"/>
<path d="M18.3614 7.33434C19.1599 7.33434 19.8072 6.68704 19.8072 5.88856C19.8072 5.09007 19.1599 4.44277 18.3614 4.44277C17.563 4.44277 16.9157 5.09007 16.9157 5.88856C16.9157 6.68704 17.563 7.33434 18.3614 7.33434Z" fill="#349F55"/>
</g>
</g>
</svg>
