<svg width="64" height="64" viewBox="0 0 64 64" fill="none" xmlns="http://www.w3.org/2000/svg">
<g id="Group">
<g id="Clip path group">
<mask id="mask0_248_11437" style="mask-type:luminance" maskUnits="userSpaceOnUse" x="0" y="0" width="64" height="64">
<g id="a">
<path id="Vector" d="M62.9998 63V1.00019H1V63H62.9998Z" fill="white" stroke="white" stroke-width="2"/>
</g>
</mask>
<g mask="url(#mask0_248_11437)">
<g id="Group_2">
<path id="Vector_2" d="M62.7498 32.0002C62.7498 30.0809 62.5737 28.2018 62.2346 26.3796L58.3957 25.3896C57.7493 22.8033 56.7226 20.3273 55.3491 18.0425L57.4505 14.7687C55.2606 11.5528 52.4825 8.77977 49.2626 6.59576L45.983 8.69337C43.6931 7.32185 41.2126 6.29707 38.6224 5.65238L37.6306 1.82052C35.8051 1.48189 33.9225 1.30602 31.9999 1.30602C30.0773 1.30602 28.1947 1.48189 26.3692 1.82052L25.3774 5.65238C22.7872 6.29707 20.3068 7.32185 18.0168 8.69337L14.7372 6.59576C11.5173 8.77977 8.73923 11.5528 6.54936 14.7687L8.65073 18.0425C7.27724 20.3273 6.25051 22.8033 5.60411 25.3896L1.76525 26.3796C1.42613 28.2018 1.25 30.0809 1.25 32.0002C1.25 33.9194 1.42613 35.7985 1.76525 37.6208L5.60411 38.6108C6.25051 41.1971 7.27724 43.6731 8.65073 45.9579L6.54936 49.2316C8.73923 52.4476 11.5173 55.2206 14.7372 57.4046L18.0168 55.307C20.3068 56.6785 22.7872 57.7033 25.3774 58.348L26.3692 62.18C28.1947 62.5185 30.0773 62.6943 31.9999 62.6943C33.9225 62.6943 35.8051 62.5185 37.6306 62.18L38.6224 58.348C41.2126 57.7033 43.6931 56.6785 45.983 55.307L49.2626 57.4046C52.4825 55.2206 55.2606 52.4476 57.4505 49.2316L55.3491 45.9579C56.7226 43.6731 57.7493 41.1971 58.3957 38.6108L62.2346 37.6208C62.5737 35.7985 62.7498 33.9194 62.7498 32.0002Z" stroke="#349F55" stroke-width="2" stroke-miterlimit="10" stroke-linecap="round" stroke-linejoin="round"/>
<path id="Vector_3" d="M50.8286 37.6242C48.4099 45.7334 40.8954 51.6455 32 51.6455C21.1501 51.6455 12.3546 42.85 12.3546 32.0001C12.3546 21.1501 21.1501 12.3546 32 12.3546C40.8973 12.3546 48.413 18.2691 50.8301 26.381" stroke="#349F55" stroke-width="2" stroke-miterlimit="10" stroke-linecap="round" stroke-linejoin="round"/>
<path id="Vector_4" d="M31.9999 37.2722H25.0036C22.0432 37.2722 19.6432 34.8723 19.6432 31.9119V24.9155H26.6397C29.6 24.9155 31.9999 27.3154 31.9999 30.2757M31.9999 37.2722V30.2757M31.9999 37.2722H38.9963C41.9566 37.2722 44.3566 34.8723 44.3566 31.9119V24.9155H37.3603C34.3998 24.9155 31.9999 27.3154 31.9999 30.2757" stroke="#349F55" stroke-width="2" stroke-miterlimit="10" stroke-linecap="round" stroke-linejoin="round"/>
<path id="Vector_5" d="M31.9999 41.5864V38.6152" stroke="#349F55" stroke-width="2" stroke-miterlimit="10" stroke-linecap="round" stroke-linejoin="round"/>
<path id="Vector_6" d="M37.2961 32.07L31.9999 37.3662L26.7038 32.07" stroke="#349F55" stroke-width="2" stroke-miterlimit="10" stroke-linecap="round" stroke-linejoin="round"/>
</g>
</g>
</g>
</g>
</svg>
