<svg width="186" height="48" viewBox="0 0 186 48" fill="none" xmlns="http://www.w3.org/2000/svg">
<g id="logo">
<path id="Vector" d="M0.0749397 0.0727539L0 31.1744C0 32.704 0.224819 34.1607 0.599517 35.5446C0.974216 36.9285 1.57373 38.2396 2.39807 39.4779C3.22241 40.7889 4.19662 41.9543 5.24578 42.9741C6.29493 43.9938 7.56891 44.8678 8.91782 45.669C11.6906 47.1986 14.6132 47.927 17.7607 47.927C19.4094 47.927 20.9831 47.7085 22.4819 47.3443C23.9807 46.9801 25.4046 46.3974 26.7535 45.5962C28.1024 44.8678 29.3764 43.9209 30.4255 42.9012C31.4747 41.8087 32.4489 40.6433 33.2732 39.3322C34.0976 38.0211 34.6971 36.5644 35.0718 35.1804C35.4465 33.7237 35.6713 32.1941 35.6713 30.6645C35.6713 27.5325 34.847 24.619 33.2732 21.924C32.4489 20.6129 31.4747 19.3747 30.4255 18.355C29.3014 17.3352 28.1024 16.3884 26.6785 15.5871C25.4046 14.7859 23.9807 14.2032 22.4819 13.839C20.9831 13.4749 19.4843 13.2563 17.8356 13.2563C15.8872 13.2563 14.0887 13.5477 12.365 14.0576C10.6414 14.6403 8.99276 15.4415 7.49397 16.534L5.84529 17.6994V7.28367C5.84529 5.97259 5.4706 4.73436 4.87108 3.64179C4.19662 2.62207 3.22241 1.74802 2.02337 1.09248L0.0749397 0.0727539ZM7.94361 36.2002C7.41903 35.3261 7.04433 34.4521 6.81951 33.5052C6.59469 32.5583 6.44481 31.6114 6.44481 30.5917C6.44481 29.572 6.59469 28.6251 6.81951 27.6782C7.04433 26.7313 7.49397 25.7844 7.94361 24.9832C8.46818 24.1091 9.0677 23.3079 9.74216 22.6524C10.4166 21.9968 11.241 21.3413 12.1402 20.9043C13.0395 20.3944 13.9388 20.0302 14.913 19.8117C15.8872 19.5932 16.8614 19.4475 17.9106 19.4475C18.9597 19.4475 19.934 19.5932 20.9831 19.8117C21.9573 20.0302 22.8566 20.4673 23.7559 20.9043C24.6552 21.4141 25.4046 21.9968 26.1539 22.7252C26.8284 23.4536 27.5029 24.182 27.9525 25.056C28.4771 25.9301 28.8518 26.8041 29.0766 27.751C29.3014 28.6979 29.4513 29.6448 29.4513 30.6645C29.4513 31.6842 29.3014 32.6311 29.0766 33.578C28.8518 34.5249 28.4021 35.399 27.9525 36.273C27.4279 37.1471 26.8284 37.9483 26.079 38.6038C25.4046 39.2593 24.5802 39.9149 23.6809 40.3519C22.7817 40.8618 21.8824 41.226 20.9082 41.4445C19.934 41.663 18.9597 41.8087 17.9106 41.8087C16.9364 41.8087 15.8872 41.663 14.9879 41.4445C14.0137 41.226 13.1144 40.7889 12.2152 40.3519C11.241 39.7692 10.4916 39.1865 9.74216 38.531C9.0677 37.8754 8.46818 37.0742 7.94361 36.2002ZM47.7366 47.9998L47.8115 21.05C47.8115 18.8648 46.9122 16.9711 45.4884 15.5143C44.2144 14.3489 42.5657 13.4749 40.7672 13.2563V47.927H47.7366V47.9998ZM41.1419 6.84664C41.5166 7.21083 41.9662 7.50218 42.4908 7.72069C43.0154 7.93921 43.54 8.01204 44.1395 8.01204C44.739 8.01204 45.2636 7.93921 45.7881 7.72069C46.2378 7.50218 46.6874 7.21083 47.1371 6.84664C47.5118 6.48246 47.8865 6.04543 48.0363 5.53557C48.2612 5.09854 48.3361 4.58868 48.3361 4.00598C48.3361 2.91342 47.9614 1.96653 47.1371 1.23815C46.3877 0.436942 45.3385 0.0727539 44.2144 0.0727539C43.6149 0.0727539 43.0903 0.145591 42.5657 0.364104C42.1161 0.582617 41.6665 0.873967 41.2168 1.23815C40.7672 1.60234 40.4674 2.03937 40.3175 2.54923C40.0927 2.98625 40.0178 3.49612 40.0178 4.07882C40.0178 4.66152 40.0927 5.17138 40.3175 5.60841C40.4674 6.04543 40.7672 6.48246 41.1419 6.84664Z" fill="#257F41"/>
<path id="Vector_2" d="M95.6976 12.9651H93.3745L106.414 47.7086H113.758L127.247 12.9651H125.074C123.5 12.9651 122.001 13.4021 120.877 14.2762C119.678 15.0774 118.779 16.3156 118.254 17.7724L112.034 35.6904V35.8361C111.96 36.0546 111.885 36.4916 111.735 36.9286L110.311 40.9347L108.587 35.6904L102.592 17.8452C102.068 16.3884 101.168 15.1502 99.9692 14.349C98.7702 13.4749 97.2714 12.9651 95.6976 12.9651ZM157.823 24.7648C158.347 25.6388 158.797 26.5857 159.022 27.6054C159.321 28.5523 159.471 29.572 159.471 30.5918C159.471 31.6115 159.321 32.704 159.097 33.6509C158.797 34.5978 158.422 35.5447 157.898 36.4188C157.373 37.2928 156.699 38.094 155.949 38.8224C155.2 39.5508 154.375 40.1335 153.401 40.7162C152.502 41.226 151.528 41.6631 150.479 41.8816C149.429 42.1001 148.455 42.3186 147.406 42.3186C146.282 42.3186 145.233 42.1729 144.184 41.8816C143.134 41.5902 142.235 41.226 141.336 40.6433C140.437 40.1335 139.612 39.4779 138.863 38.8224C138.114 38.1669 137.514 37.2928 136.914 36.4188C136.39 35.5447 135.94 34.5978 135.715 33.5781C135.416 32.6312 135.266 31.6115 135.266 30.5918C135.266 29.4992 135.416 28.4795 135.715 27.4597C136.015 26.44 136.39 25.566 136.989 24.6919C137.514 23.8179 138.188 23.0167 138.863 22.2883C139.612 21.5599 140.437 20.9772 141.336 20.3945C142.235 19.8846 143.209 19.4476 144.259 19.2291C145.233 18.9378 146.282 18.7921 147.331 18.7921C148.38 18.7921 149.504 18.9378 150.479 19.1563C151.453 19.4476 152.427 19.8118 153.326 20.3217C154.226 20.8315 155.05 21.4871 155.799 22.2154C156.549 22.9438 157.298 23.8907 157.823 24.7648ZM159.471 45.5234V47.9271H165.242L165.317 30.0819C165.317 28.5523 165.092 27.0956 164.717 25.7116C164.342 24.3277 163.668 22.9438 162.919 21.6327C162.094 20.3217 161.12 19.2291 160.071 18.2094C158.947 17.1897 157.748 16.3156 156.324 15.5144C154.975 14.786 153.551 14.2033 152.052 13.7663C150.553 13.4021 149.055 13.1836 147.406 13.1836C145.757 13.1836 144.259 13.4021 142.76 13.7663C141.261 14.1305 139.837 14.7132 138.488 15.5144C137.064 16.3156 135.865 17.2625 134.741 18.2822C133.617 19.3748 132.718 20.5402 131.894 21.9241C131.069 23.2352 130.47 24.6191 130.095 26.0758C129.72 27.5326 129.495 29.0622 129.495 30.5918C129.495 32.1942 129.72 33.7238 130.095 35.1077C130.47 36.5644 131.144 37.9483 131.894 39.2594C132.718 40.5705 133.617 41.8087 134.741 42.9013C135.79 43.921 137.064 44.8679 138.413 45.6691C139.762 46.4703 141.186 47.053 142.685 47.4172C144.184 47.7814 145.757 47.9999 147.331 47.9999C149.205 47.9999 151.078 47.7086 152.802 47.1987C154.525 46.616 156.249 45.8148 157.823 44.7222L159.471 43.5568V45.5234ZM170.862 0V47.9271H177.906V16.8983H179.48C180.979 16.8983 182.328 16.4613 183.377 15.6601C184.426 14.8589 185.251 13.6935 185.625 12.3095L186 11.0713H177.906V0H170.862Z" fill="#D4672F"/>
<path id="Vector_3" d="M70.593 27.5325C73.4407 27.5325 74.8646 30.883 72.8412 32.7768L60.4012 44.8678C46.0877 35.1804 53.1321 13.2563 70.593 13.2563H88.4287V30.5917C88.4287 42.3914 76.5133 50.7677 65.0475 47.1258L70.593 41.7358C76.813 41.8087 81.9839 36.5644 82.1337 31.5386V19.5204H71.5672C69.5439 19.5204 68.195 19.5932 66.2465 20.3944C59.2771 23.2351 57.6285 30.8102 60.5511 36.1273L68.2699 28.6251C68.7945 27.8967 69.6937 27.5325 70.593 27.5325Z" fill="#257F41"/>
</g>
</svg>
