<svg width="64" height="64" viewBox="0 0 64 64" fill="none" xmlns="http://www.w3.org/2000/svg">
<path d="M62.573 25.181L42.987 11.471C42.8497 8.6495 41.6322 5.98897 39.5868 4.04066C37.5414 2.09236 34.8248 1.00562 32 1.00562C29.1752 1.00562 26.4586 2.09236 24.4132 4.04066C22.3678 5.98897 21.1503 8.6495 21.013 11.471L1.427 25.181C1.29523 25.2731 1.18761 25.3957 1.11328 25.5382C1.03895 25.6808 1.00009 25.8392 1 26V62C1 62.2652 1.10536 62.5196 1.29289 62.7071C1.48043 62.8946 1.73478 63 2 63H10C10.2013 62.9998 10.3979 62.9388 10.564 62.825L27.088 51.525C28.5415 50.5524 30.2511 50.0332 32 50.0332C33.7489 50.0332 35.4585 50.5524 36.912 51.525L53.436 62.825C53.6021 62.9388 53.7987 62.9998 54 63H62C62.2652 63 62.5196 62.8946 62.7071 62.7071C62.8946 62.5196 63 62.2652 63 62V26C62.9999 25.8392 62.9611 25.6808 62.8867 25.5382C62.8124 25.3957 62.7048 25.2731 62.573 25.181ZM43 13.921L50.647 19.274L52.3 21.75C53.2899 23.2363 53.8696 24.9578 53.9802 26.7402C54.0908 28.5226 53.7285 30.3026 52.93 31.9L51.624 34.512L43 28.479V13.921ZM43 30.921L51.219 36.674L53.119 40.479C54.0067 42.2527 54.2319 44.2852 53.7539 46.2103C53.276 48.1353 52.1263 49.8264 50.512 50.979L49.265 51.869L43 47.48V30.921ZM23 12C23 9.61304 23.9482 7.32385 25.636 5.63602C27.3239 3.9482 29.6131 2.99998 32 2.99998C34.3869 2.99998 36.6761 3.9482 38.364 5.63602C40.0518 7.32385 41 9.61304 41 12V41.689C39.9876 40.2412 38.6409 39.0589 37.0741 38.2427C35.5073 37.4264 33.7667 37.0002 32 37.0002C30.2333 37.0002 28.4927 37.4264 26.9259 38.2427C25.3591 39.0589 24.0124 40.2412 23 41.689V12ZM11.7 21.75L13.351 19.274L21 13.921V28.479L12.376 34.516L11.07 31.9C10.2715 30.3026 9.90917 28.5226 10.0198 26.7402C10.1304 24.9578 10.7101 23.2363 11.7 21.75ZM21 30.921V47.48L14.733 51.866L13.486 50.976C11.8717 49.8234 10.722 48.1323 10.2441 46.2073C9.76611 44.2822 9.99127 42.2497 10.879 40.476L12.779 36.676L21 30.921ZM3 26.521L9.149 22.221C8.37103 23.8799 7.97877 25.6935 8.00163 27.5256C8.02449 29.3578 8.46188 31.161 9.281 32.8L10.72 35.678L3 41.079V26.521ZM3 43.521L9.341 39.082L9.09 39.582C7.99036 41.7815 7.71192 44.3012 8.30479 46.6878C8.89766 49.0743 10.3229 51.1708 12.324 52.6L12.996 53.08L2.996 60.08L3 43.521ZM54.31 61L38.041 49.869C36.2616 48.6518 34.1559 48.0005 32 48.0005C29.8441 48.0005 27.7384 48.6518 25.959 49.869L9.69 61H5.172L22.572 48.819C22.704 48.727 22.8118 48.6045 22.8863 48.4619C22.9608 48.3193 22.9998 48.1609 23 48C23 45.613 23.9482 43.3239 25.636 41.636C27.3239 39.9482 29.6131 39 32 39C34.3869 39 36.6761 39.9482 38.364 41.636C40.0518 43.3239 41 45.613 41 48C41.0001 48.1608 41.0389 48.3192 41.1133 48.4617C41.1876 48.6043 41.2952 48.7269 41.427 48.819L58.828 61H54.31ZM61 60.079L51 53.079L51.672 52.599C53.673 51.1705 55.0986 49.0748 55.6922 46.6889C56.2858 44.303 56.0084 41.7836 54.91 39.584L54.659 39.084L61 43.521V60.079ZM61 41.079L53.28 35.679L54.719 32.8C55.5386 31.1606 55.9762 29.3568 55.9991 27.5241C56.022 25.6914 55.6294 23.8773 54.851 22.218L61 26.521V41.079Z" fill="#349F55"/>
<path fill-rule="evenodd" clip-rule="evenodd" d="M32 5C28.134 5 25 8.13401 25 12V37.8586C26.8038 36.0903 29.2745 35 32 35C34.7255 35 37.1962 36.0903 39 37.8586V12C39 8.13401 35.866 5 32 5Z" fill="#D8E7DC"/>
</svg>
