<svg width="24" height="24" viewBox="0 0 24 24" fill="none" xmlns="http://www.w3.org/2000/svg">
<g id="Search">
<path id="&#226;&#134;&#179; Icon Color" d="M9.85809 2C14.198 2 17.7162 5.51711 17.7162 9.85568C17.7162 11.6387 17.122 13.2829 16.1208 14.6013L21.6866 20.1718C22.1048 20.5904 22.1044 21.2686 21.6857 21.6867C21.267 22.1048 20.5885 22.1044 20.1703 21.6858L14.6052 16.1165C13.2864 17.1174 11.6416 17.7114 9.85809 17.7114C5.51819 17.7114 2 14.1942 2 9.85568C2 5.51711 5.51819 2 9.85809 2ZM9.85809 4.14234C6.70181 4.14234 4.14309 6.70027 4.14309 9.85568C4.14309 13.0111 6.70181 15.569 9.85809 15.569C13.0144 15.569 15.5731 13.0111 15.5731 9.85568C15.5731 6.70027 13.0144 4.14234 9.85809 4.14234Z" fill="#257F41"/>
</g>
</svg>
