<svg width="240" height="220" viewBox="0 0 240 220" fill="none" xmlns="http://www.w3.org/2000/svg">
<g id="Frame" clip-path="url(#clip0_248_2815)">
<g id="Background Simple">
<g id="Group">
<path id="Vector" d="M233.095 129.844C225.627 149.864 210.366 171.533 188.885 177.951C156.435 187.648 152.559 213.826 94.4374 211.394C85.3762 211.018 76.9999 209.739 69.3035 207.708C65.1686 206.617 61.2265 205.296 57.4874 203.773C23.5358 190.009 5.82434 159.718 4.35304 128.022C2.4099 86.3378 31.4757 66.4656 50.3642 54.8338C69.2527 43.2019 92.0173 -1.87852 149.175 0.0609698C157.891 0.360524 166.582 1.55367 175.009 3.8384C194.242 9.04761 213.791 20.5678 225.15 37.4088C226.002 38.673 226.814 39.9677 227.595 41.2878C242.801 67.1003 243.277 102.549 233.095 129.844Z" fill="#86E7A4"/>
<path id="Vector_2" opacity="0.7" d="M233.095 129.844C225.627 149.864 210.366 171.533 188.885 177.951C156.435 187.648 152.559 213.826 94.4374 211.394C85.3762 211.018 76.9999 209.739 69.3035 207.708C65.1686 206.617 61.2265 205.296 57.4874 203.773C23.5358 190.009 5.82434 159.718 4.35304 128.022C2.4099 86.3378 31.4757 66.4656 50.3642 54.8338C69.2527 43.2019 92.0173 -1.87852 149.175 0.0609698C157.891 0.360524 166.582 1.55367 175.009 3.8384C194.242 9.04761 213.791 20.5678 225.15 37.4088C226.002 38.673 226.814 39.9677 227.595 41.2878C242.801 67.1003 243.277 102.549 233.095 129.844Z" fill="white"/>
</g>
</g>
<g id="Puzzle">
<g id="Group_2">
<g id="Group_3">
<path id="Vector_3" d="M120.61 142.07C114.232 127.568 115.171 103.816 118.129 101.844C121.384 99.6746 126.544 110.803 131.698 107.546C136.852 104.289 140.381 97.2247 136.04 86.0904C131.698 74.9561 126 82.2893 121.927 85.0028C117.855 87.7163 114.6 85.272 115.412 75.4999C116.01 68.2931 118.826 55.033 120.259 48.5678C120.906 48.8479 121.554 49.128 122.196 49.4302C109.44 43.4538 95.3335 41.5532 89.3615 43.4538C83.395 45.3544 84.4763 45.8982 87.4623 52.9567C93.6868 67.6834 70.1062 72.7424 63.2999 61.3884C59.2271 54.5991 65.2101 50.7869 63.5854 45.8982C61.9551 41.0094 31.8373 46.7111 28.0389 48.8864C28.0389 48.8864 35.3667 70.8803 34.2798 78.7573C33.193 86.6342 29.3947 90.1607 23.6971 84.459C17.9996 78.7573 10.6719 83.9152 10.4029 93.4181C10.1339 102.921 11.7587 110.529 18.2741 108.354C24.7894 106.178 29.9436 98.3068 32.1117 108.354C34.2853 118.4 30.4815 131.435 28.3134 140.669C28.3134 140.669 45.4114 148.002 53.2771 147.458C61.1483 146.914 66.0334 146.645 63.5908 141.756C61.1483 136.868 57.0755 133.61 60.0615 128.178C63.0474 122.745 74.9859 123.289 81.2269 124.646C87.4678 126.002 90.1793 130.622 88.2802 135.78C86.381 140.938 83.126 146.101 89.0925 147.183C94.7187 148.205 109.028 145.854 123.151 141.257C122.306 141.531 121.455 141.8 120.61 142.059V142.07Z" stroke="#263238" stroke-miterlimit="10"/>
<path id="Vector_4" d="M125.726 140.405C124.892 140.696 124.052 140.976 123.212 141.245C124.052 140.971 124.886 140.691 125.726 140.405Z" stroke="#263238" stroke-miterlimit="10"/>
</g>
<path id="Vector_5" d="M224.774 82.0202C219.62 82.0202 219.345 86.0959 213.922 85.2775C208.494 84.4645 207.95 71.9735 213.653 49.974C213.653 49.974 207.412 54.5881 193.3 54.8628C179.188 55.1319 173.491 53.506 177.02 48.3426C180.549 43.1847 183.261 39.1089 180.275 35.0386C177.289 30.9628 162.908 31.5066 158.297 35.0386C153.687 38.5706 156.941 42.6409 160.196 47.2605C163.451 51.8801 159.653 54.5936 154.224 54.8628C148.796 55.1319 134.958 55.4066 122.202 49.4302C121.56 49.1281 120.912 48.848 120.264 48.5678C118.826 55.0386 116.016 68.2932 115.418 75.5C114.605 85.2775 117.86 87.7219 121.933 85.0028C126.006 82.2893 131.703 74.9562 136.045 86.0905C140.387 97.2248 136.857 104.283 131.703 107.546C126.549 110.803 121.39 99.6691 118.135 101.844C115.176 103.822 114.232 127.568 120.616 142.07C122.323 141.548 124.035 140.993 125.731 140.405C140.656 135.247 155.58 132.803 158.297 136.329C161.009 139.861 159.927 139.318 156.398 144.75C152.869 150.183 153.143 154.797 159.11 157.516C165.082 160.229 179.732 159.691 181.087 153.44C182.443 147.195 174.846 143.663 178.376 137.692C181.905 131.715 213.11 140.405 213.11 140.405C213.11 140.405 206.057 116.505 208.768 108.634C211.48 100.757 213.653 102.657 217.995 105.646C222.337 108.634 228.034 108.359 230.208 99.6691C232.376 90.9792 229.939 82.0202 224.779 82.0202H224.774Z" stroke="#263238" stroke-miterlimit="10"/>
</g>
</g>
<g id="Plants">
<g id="Group_4">
<path id="Vector_6" d="M5.45398 184.51C6.55492 184.993 9.24893 184.932 9.24893 184.932C9.27429 184.932 8.67055 183.165 8.61982 183.058C8.0313 181.819 6.15919 179.778 4.63715 179.982C3.54128 180.129 2.93247 181.225 3.18107 182.261C3.43474 183.317 4.51539 184.099 5.45398 184.51Z" fill="#86E7A4"/>
<path id="Vector_7" d="M6.38241 192.319C7.52394 192.487 9.92876 191.786 10.1215 191.73C10.5021 193.076 10.9993 194.426 11.5776 195.767C11.9074 196.533 12.2676 197.295 12.6329 198.051C12.4148 197.731 12.2169 197.442 12.1814 197.406C11.2834 196.371 8.94451 194.893 7.52901 195.492C6.50924 195.924 6.21498 197.142 6.72233 198.077C7.2449 199.026 8.49297 199.498 9.50766 199.646C10.5376 199.798 12.5974 199.239 13.1403 199.087C13.2823 199.376 13.4244 199.666 13.5715 199.955C14.2666 201.341 14.9667 202.722 15.6161 204.098C15.8444 204.581 16.0524 205.068 16.2604 205.555C16.0676 205.271 15.9002 205.032 15.8698 204.997C14.9718 203.961 12.6329 202.484 11.2174 203.083C10.1976 203.514 9.90339 204.733 10.4107 205.667C10.9333 206.617 12.1814 207.089 13.1961 207.236C14.1752 207.378 16.0829 206.886 16.7323 206.708C16.9301 207.211 17.1331 207.713 17.3005 208.211C17.407 208.551 17.5389 208.876 17.6252 209.221C17.7216 209.566 17.818 209.907 17.9093 210.242C18.0666 210.897 18.234 211.572 18.371 212.217C18.4725 212.663 18.5536 213.09 18.645 213.522C18.4217 213.034 17.9702 212.095 17.9245 212.019C17.194 210.856 15.1037 209.043 13.6172 209.424C12.5467 209.698 12.0647 210.856 12.43 211.856C12.8003 212.877 13.9672 213.527 14.9464 213.826C16.022 214.156 18.4116 213.857 18.7109 213.816C18.853 214.532 18.9849 215.222 19.1016 215.882C19.3552 217.334 19.548 218.639 19.6952 219.741H20.6997C20.5221 218.599 20.2938 217.243 19.9894 215.72C19.8474 214.994 19.6799 214.222 19.5024 213.43C19.6799 213.359 20.6997 212.948 21.6028 212.44C22.3892 213.293 24.4033 214.288 24.6621 214.415C24.3881 215.09 24.1141 215.74 23.8453 216.355C23.2872 217.634 22.7595 218.771 22.2928 219.741H23.3785C23.7793 218.847 24.2207 217.832 24.6824 216.71C24.9614 216.025 25.2506 215.288 25.5398 214.532C25.829 214.593 28.1932 215.07 29.2942 214.821C30.2936 214.598 31.5011 214.029 31.9476 213.044C32.3839 212.08 31.9932 210.886 30.943 210.531C29.4869 210.044 27.2698 211.694 26.453 212.801C26.4074 212.867 25.9609 213.628 25.692 214.116C25.8087 213.806 25.9254 213.506 26.037 213.186C26.2704 212.552 26.4835 211.912 26.7118 211.227C26.8132 210.892 26.9147 210.551 27.0162 210.211C27.1227 209.876 27.1988 209.505 27.2901 209.145C27.488 208.312 27.6503 207.459 27.7924 206.601C28.3454 206.804 30.3291 207.495 31.354 207.419C32.3737 207.348 33.6573 206.972 34.2458 206.063C34.8242 205.175 34.6162 203.936 33.637 203.428C32.2723 202.722 29.8269 204.022 28.8578 204.992C28.797 205.053 28.178 205.824 27.8482 206.256C27.9294 205.738 28.0156 205.22 28.0765 204.692C28.2642 203.169 28.4114 201.621 28.5585 200.077C28.6042 199.605 28.6549 199.133 28.7056 198.661C28.9035 198.737 31.2373 199.605 32.389 199.524C33.4087 199.453 34.6923 199.077 35.2808 198.168C35.8592 197.28 35.6512 196.041 34.672 195.533C33.3073 194.827 30.8618 196.127 29.8928 197.092C29.8218 197.163 28.9289 198.28 28.7158 198.574C28.8274 197.538 28.9441 196.503 29.1014 195.492C29.3195 194.096 29.6087 192.735 29.9841 191.436C30.0755 191.471 32.5107 192.39 33.6878 192.309C34.7075 192.238 35.9911 191.862 36.5796 190.953C37.158 190.065 36.95 188.826 35.9708 188.318C34.6061 187.613 32.1607 188.912 31.1916 189.882C31.1155 189.958 30.1617 191.156 29.9994 191.385C30.0247 191.309 30.0349 191.228 30.0602 191.146C30.4813 189.765 31.0648 188.481 31.6635 187.308C32.0135 186.623 32.3839 185.993 32.7593 185.384C33.1956 185.602 35.1997 186.577 36.2651 186.617C37.2899 186.658 38.604 186.425 39.2889 185.587C39.9636 184.764 39.8926 183.51 38.9692 182.901C37.6907 182.053 35.1185 183.074 34.048 183.927C33.9922 183.972 33.4493 184.51 33.0637 184.906C33.2362 184.632 33.4138 184.348 33.5812 184.094C34.2256 183.124 34.8699 182.282 35.4483 181.535C35.7831 181.114 36.0926 180.738 36.3818 180.393C36.9196 180.383 39.091 180.317 40.0397 179.87C40.9682 179.433 42.0235 178.621 42.2518 177.56C42.4699 176.519 41.8307 175.443 40.7348 175.321C39.2077 175.158 37.3965 177.25 36.8384 178.504C36.7927 178.611 36.2296 180.393 36.26 180.393C36.26 180.393 36.2854 180.393 36.2905 180.393C36.0013 180.723 35.6969 181.078 35.3671 181.469C34.7684 182.205 34.1038 183.038 33.4392 183.998C32.7695 184.952 32.0744 186.008 31.4352 187.186C30.7959 188.369 30.1871 189.643 29.7254 191.04C29.7203 191.055 29.7152 191.07 29.7102 191.09C29.7203 190.639 29.7 189.379 29.6848 189.283C29.5072 187.922 28.3708 185.399 26.8589 185.12C25.7732 184.917 24.8498 185.77 24.7636 186.831C24.6773 187.912 25.4586 188.994 26.2196 189.674C27.0821 190.446 29.4717 191.187 29.6594 191.248C29.2333 192.578 28.9035 193.984 28.6498 195.421C28.5027 196.244 28.3809 197.076 28.2693 197.909C28.2642 197.518 28.2541 197.173 28.249 197.122C28.0714 195.761 26.935 193.238 25.4231 192.959C24.3374 192.756 23.414 193.609 23.3278 194.67C23.2415 195.751 24.0228 196.833 24.7838 197.513C25.5601 198.204 27.5844 198.884 28.1222 199.051C28.0816 199.371 28.041 199.691 28.0004 200.016C27.8178 201.56 27.6402 203.098 27.417 204.601C27.3409 205.129 27.2445 205.652 27.1532 206.17C27.1481 205.824 27.1379 205.535 27.1329 205.489C26.9553 204.129 25.8188 201.605 24.3069 201.326C23.2212 201.123 22.2978 201.976 22.2116 203.037C22.1254 204.119 22.9067 205.2 23.6677 205.88C24.4084 206.54 26.2704 207.18 26.9096 207.388C26.798 207.916 26.6864 208.449 26.5545 208.957C26.4581 209.302 26.3871 209.643 26.2653 209.983C26.1537 210.323 26.0471 210.658 25.9406 210.993C25.7123 211.628 25.4738 212.283 25.2354 212.897C25.073 213.324 24.9056 213.73 24.7433 214.136C24.8244 213.608 24.9665 212.572 24.9665 212.486C24.9868 211.577 24.6621 210.094 24.0228 209.054C24.0228 208.922 24.0228 208.784 23.9975 208.652C23.83 207.607 22.8458 206.825 21.7753 207.109C20.2938 207.505 19.3502 210.11 19.2791 211.48C19.2791 211.562 19.3299 212.445 19.3705 212.999C19.2944 212.674 19.2284 212.364 19.1472 212.029C18.99 211.374 18.8175 210.724 18.6297 210.023C18.5283 209.688 18.4268 209.348 18.3203 209.008C18.2239 208.668 18.0818 208.317 17.96 207.972C17.6658 207.17 17.3309 206.368 16.9758 205.571C17.5491 205.434 19.5835 204.916 20.3953 204.286C21.2071 203.662 22.0695 202.641 22.0594 201.56C22.0492 200.499 21.1969 199.58 20.096 199.696C18.5689 199.864 17.2447 202.296 16.9707 203.636C16.9555 203.723 16.8642 204.708 16.8236 205.251C16.6054 204.774 16.3923 204.296 16.1539 203.819C15.474 202.443 14.7384 201.072 14.0129 199.706C13.7897 199.285 13.5715 198.869 13.3533 198.447C13.5563 198.402 15.9865 197.838 16.8997 197.137C17.7114 196.513 18.5739 195.492 18.5638 194.411C18.5536 193.35 17.7013 192.431 16.6004 192.553C15.0732 192.72 13.7491 195.152 13.4751 196.493C13.4548 196.594 13.328 198.011 13.3128 198.376C12.8308 197.452 12.364 196.523 11.9328 195.589C11.3443 194.304 10.8318 193.01 10.4361 191.715C10.5325 191.695 13.0692 191.116 14.0027 190.4C14.8145 189.775 15.677 188.755 15.6668 187.674C15.6618 186.612 14.8044 185.693 13.7034 185.81C12.1763 185.978 10.8521 188.41 10.5782 189.75C10.5579 189.857 10.4209 191.385 10.4158 191.659C10.3904 191.583 10.36 191.507 10.3346 191.431C9.92368 190.045 9.70045 188.653 9.55839 187.343C9.47215 186.582 9.43156 185.846 9.41126 185.13C9.89324 185.069 12.1002 184.774 13.0134 184.221C13.8911 183.688 14.8551 182.769 14.9667 181.693C15.0732 180.637 14.3274 179.631 13.2214 179.626C11.6842 179.626 10.1013 181.896 9.68016 183.2C9.65479 183.272 9.50259 184.018 9.40112 184.566C9.40112 184.241 9.3859 183.911 9.3859 183.602C9.3859 182.439 9.462 181.378 9.53303 180.433C9.57869 179.9 9.62942 179.418 9.68523 178.966C10.1317 178.661 11.9023 177.407 12.4503 176.509C12.983 175.635 13.4193 174.371 13.0185 173.361C12.6278 172.371 11.5015 171.823 10.5173 172.33C9.15252 173.036 8.79738 175.783 9.02061 177.133C9.0409 177.25 9.55332 179.042 9.57869 179.027C9.57869 179.027 9.59898 179.012 9.60405 179.007C9.54317 179.438 9.48737 179.905 9.43156 180.413C9.34023 181.352 9.23877 182.419 9.2134 183.586C9.18296 184.749 9.18296 186.018 9.30472 187.354C9.42141 188.689 9.6142 190.09 9.99978 191.512C9.99978 191.527 10.0099 191.542 10.015 191.558C9.77148 191.177 9.06119 190.141 9.00031 190.065C8.10231 189.029 5.76345 187.552 4.34795 188.151C3.32818 188.582 3.03392 189.801 3.54127 190.735C4.06384 191.684 5.31191 192.157 6.3266 192.304L6.38241 192.319Z" fill="#86E7A4"/>
<path id="Vector_8" d="M32.7035 185.104C32.7035 185.104 33.1957 183.312 33.2109 183.195C33.3986 181.835 32.9674 179.103 31.5823 178.433C30.5879 177.951 29.4717 178.53 29.1115 179.53C28.7412 180.55 29.213 181.799 29.766 182.657C30.4205 183.668 32.6985 185.104 32.7035 185.104Z" fill="#86E7A4"/>
</g>
<g id="Group_5">
<path id="Vector_9" d="M192.72 184.51C193.821 184.993 196.515 184.932 196.515 184.932C196.541 184.932 195.937 183.165 195.886 183.058C195.298 181.819 193.426 179.778 191.904 179.982C190.808 180.129 190.199 181.225 190.448 182.261C190.701 183.317 191.782 184.099 192.72 184.51Z" fill="#86E7A4"/>
<path id="Vector_10" d="M193.649 192.319C194.79 192.487 197.195 191.786 197.388 191.73C197.769 193.076 198.266 194.426 198.844 195.767C199.174 196.533 199.534 197.295 199.899 198.051C199.681 197.731 199.483 197.442 199.448 197.406C198.55 196.371 196.211 194.893 194.795 195.492C193.776 195.924 193.481 197.142 193.989 198.077C194.511 199.026 195.759 199.498 196.774 199.646C197.804 199.798 199.864 199.239 200.407 199.087C200.549 199.376 200.691 199.666 200.838 199.955C201.533 201.341 202.233 202.722 202.883 204.098C203.111 204.581 203.319 205.068 203.527 205.555C203.334 205.271 203.167 205.032 203.136 204.997C202.238 203.961 199.899 202.484 198.484 203.083C197.464 203.514 197.17 204.733 197.677 205.667C198.2 206.617 199.448 207.089 200.463 207.236C201.442 207.378 203.349 206.886 203.999 206.708C204.197 207.211 204.394 207.713 204.567 208.211C204.674 208.551 204.805 208.876 204.892 209.221C204.988 209.566 205.084 209.907 205.176 210.242C205.333 210.897 205.5 211.572 205.637 212.217C205.739 212.663 205.82 213.09 205.911 213.522C205.688 213.034 205.237 212.095 205.191 212.019C204.46 210.856 202.37 209.043 200.884 209.424C199.813 209.698 199.331 210.856 199.696 211.856C200.067 212.877 201.234 213.527 202.213 213.826C203.288 214.156 205.678 213.857 205.977 213.816C206.119 214.532 206.251 215.222 206.368 215.882C206.622 217.334 206.815 218.639 206.962 219.741H207.966C207.789 218.599 207.56 217.243 207.256 215.72C207.114 214.994 206.946 214.222 206.769 213.43C206.946 213.359 207.966 212.948 208.869 212.44C209.656 213.293 211.67 214.288 211.929 214.415C211.655 215.09 211.381 215.74 211.112 216.355C210.554 217.634 210.026 218.771 209.559 219.741H210.645C211.046 218.847 211.487 217.832 211.949 216.71C212.228 216.025 212.517 215.288 212.806 214.532C213.095 214.593 215.46 215.07 216.561 214.821C217.56 214.598 218.768 214.029 219.214 213.044C219.65 212.08 219.26 210.886 218.21 210.531C216.753 210.044 214.536 211.694 213.719 212.801C213.669 212.867 213.227 213.628 212.958 214.116C213.075 213.806 213.192 213.506 213.303 213.186C213.537 212.552 213.75 211.912 213.978 211.227C214.08 210.892 214.181 210.551 214.283 210.211C214.389 209.876 214.465 209.505 214.557 209.145C214.754 208.312 214.917 207.459 215.059 206.601C215.612 206.804 217.596 207.495 218.62 207.419C219.64 207.348 220.924 206.972 221.512 206.063C222.091 205.175 221.883 203.936 220.904 203.428C219.539 202.722 217.093 204.022 216.124 204.992C216.063 205.053 215.444 205.824 215.115 206.256C215.196 205.738 215.282 205.22 215.343 204.692C215.531 203.169 215.678 201.621 215.825 200.077C215.871 199.605 215.921 199.133 215.972 198.661C216.17 198.737 218.504 199.605 219.655 199.524C220.675 199.453 221.959 199.077 222.547 198.168C223.126 197.28 222.918 196.041 221.939 195.533C220.574 194.827 218.128 196.127 217.159 197.092C217.088 197.163 216.195 198.28 215.982 198.574C216.094 197.538 216.211 196.503 216.368 195.492C216.586 194.096 216.875 192.735 217.251 191.436C217.342 191.471 219.777 192.39 220.954 192.309C221.974 192.238 223.258 191.862 223.846 190.953C224.424 190.065 224.216 188.826 223.237 188.318C221.873 187.613 219.427 188.912 218.458 189.882C218.382 189.958 217.428 191.156 217.266 191.385C217.286 191.309 217.301 191.228 217.327 191.146C217.748 189.765 218.331 188.481 218.93 187.308C219.28 186.623 219.65 185.993 220.026 185.384C220.462 185.602 222.466 186.577 223.532 186.617C224.556 186.658 225.87 186.425 226.555 185.587C227.23 184.764 227.159 183.51 226.236 182.901C224.957 182.053 222.385 183.074 221.314 183.927C221.259 183.972 220.716 184.51 220.33 184.906C220.503 184.632 220.68 184.348 220.848 184.094C221.492 183.124 222.136 182.282 222.715 181.535C223.05 181.114 223.359 180.738 223.648 180.393C224.186 180.383 226.357 180.317 227.306 179.87C228.235 179.433 229.29 178.621 229.518 177.56C229.736 176.519 229.097 175.443 228.001 175.321C226.474 175.158 224.663 177.25 224.105 178.504C224.059 178.611 223.496 180.393 223.526 180.393C223.526 180.393 223.552 180.393 223.557 180.393C223.268 180.723 222.963 181.078 222.634 181.469C222.035 182.205 221.37 183.038 220.706 183.998C220.036 184.952 219.341 186.008 218.702 187.186C218.062 188.369 217.454 189.643 216.992 191.04C216.987 191.055 216.982 191.07 216.977 191.09C216.987 190.639 216.967 189.379 216.951 189.283C216.774 187.922 215.637 185.399 214.125 185.12C213.04 184.917 212.116 185.77 212.03 186.831C211.944 187.912 212.725 188.994 213.486 189.674C214.349 190.446 216.738 191.187 216.926 191.248C216.5 192.578 216.17 193.984 215.916 195.421C215.769 196.244 215.647 197.076 215.536 197.909C215.531 197.518 215.521 197.173 215.516 197.122C215.338 195.761 214.201 193.238 212.69 192.959C211.604 192.756 210.68 193.609 210.594 194.67C210.508 195.751 211.289 196.833 212.05 197.513C212.827 198.204 214.851 198.884 215.389 199.051C215.348 199.371 215.307 199.691 215.267 200.016C215.084 201.56 214.907 203.098 214.689 204.601C214.612 205.129 214.516 205.652 214.425 206.17C214.42 205.824 214.409 205.535 214.404 205.489C214.227 204.129 213.09 201.605 211.578 201.326C210.493 201.123 209.569 201.976 209.483 203.037C209.397 204.119 210.178 205.2 210.939 205.88C211.68 206.54 213.542 207.18 214.181 207.388C214.07 207.916 213.958 208.449 213.826 208.957C213.73 209.302 213.659 209.643 213.537 209.983C213.425 210.323 213.319 210.658 213.212 210.993C212.984 211.628 212.745 212.283 212.507 212.897C212.345 213.324 212.177 213.73 212.015 214.136C212.096 213.608 212.238 212.572 212.243 212.486C212.263 211.577 211.939 210.094 211.299 209.054C211.299 208.922 211.299 208.784 211.274 208.652C211.107 207.607 210.122 206.825 209.052 207.109C207.57 207.505 206.627 210.11 206.556 211.48C206.556 211.562 206.607 212.445 206.647 212.999C206.571 212.674 206.505 212.364 206.424 212.029C206.267 211.374 206.094 210.724 205.906 210.023C205.805 209.688 205.703 209.348 205.597 209.008C205.5 208.668 205.358 208.317 205.237 207.972C204.942 207.17 204.608 206.368 204.252 205.571C204.826 205.434 206.86 204.916 207.672 204.286C208.484 203.662 209.346 202.641 209.336 201.56C209.326 200.499 208.474 199.58 207.373 199.696C205.845 199.864 204.521 202.296 204.247 203.636C204.232 203.723 204.141 204.708 204.1 205.251C203.882 204.774 203.669 204.296 203.431 203.819C202.751 202.443 202.015 201.072 201.29 199.706C201.066 199.285 200.848 198.869 200.63 198.447C200.833 198.402 203.263 197.838 204.176 197.137C204.988 196.513 205.851 195.492 205.84 194.411C205.835 193.35 204.978 192.431 203.877 192.553C202.35 192.72 201.026 195.152 200.752 196.493C200.731 196.594 200.605 198.011 200.589 198.376C200.107 197.452 199.641 196.523 199.209 195.589C198.621 194.304 198.108 193.01 197.713 191.715C197.809 191.695 200.346 191.116 201.279 190.4C202.091 189.775 202.954 188.755 202.943 187.674C202.938 186.612 202.081 185.693 200.98 185.81C199.453 185.978 198.129 188.41 197.855 189.75C197.835 189.857 197.698 191.385 197.692 191.659C197.667 191.583 197.637 191.507 197.611 191.431C197.2 190.045 196.977 188.653 196.835 187.343C196.749 186.582 196.708 185.846 196.688 185.13C197.17 185.069 199.377 184.774 200.29 184.221C201.168 183.688 202.132 182.769 202.243 181.693C202.35 180.637 201.604 179.631 200.498 179.626C198.961 179.626 197.378 181.896 196.957 183.2C196.931 183.272 196.779 184.018 196.678 184.566C196.678 184.241 196.663 183.911 196.663 183.602C196.663 182.439 196.739 181.378 196.81 180.433C196.855 179.9 196.906 179.418 196.962 178.966C197.408 178.661 199.179 177.407 199.727 176.509C200.26 175.635 200.696 174.371 200.295 173.361C199.904 172.371 198.778 171.823 197.794 172.33C196.429 173.036 196.074 175.783 196.297 177.133C196.318 177.25 196.83 179.042 196.855 179.027C196.855 179.027 196.876 179.012 196.881 179.007C196.82 179.438 196.764 179.905 196.708 180.413C196.617 181.352 196.515 182.419 196.49 183.586C196.46 184.749 196.46 186.018 196.581 187.354C196.698 188.689 196.891 190.09 197.276 191.512C197.276 191.527 197.287 191.542 197.292 191.558C197.048 191.177 196.338 190.141 196.277 190.065C195.379 189.029 193.04 187.552 191.625 188.151C190.605 188.582 190.311 189.801 190.818 190.735C191.34 191.684 192.589 192.157 193.603 192.304L193.649 192.319Z" fill="#86E7A4"/>
<path id="Vector_11" d="M219.97 185.104C219.97 185.104 220.462 183.312 220.477 183.195C220.665 181.835 220.234 179.103 218.849 178.433C217.854 177.951 216.738 178.53 216.378 179.53C216.008 180.55 216.479 181.799 217.032 182.657C217.687 183.668 219.965 185.104 219.97 185.104Z" fill="#86E7A4"/>
</g>
</g>
<g id="Characters">
<g id="Group_6">
<g id="Group_7">
<path id="Vector_12" d="M174.858 67.2829C174.858 67.2829 175.028 61.0813 178.601 59.3236C182.175 57.5603 182.378 63.3719 182.378 63.3719C182.378 63.3719 190.556 58.1755 192.329 62.114C194.102 66.0525 191.627 67.9586 191.627 67.9586C191.627 67.9586 198.888 67.7059 199.388 71.6883C199.887 75.6707 196.144 77.6207 196.144 77.6207C196.144 77.6207 200.634 81.2846 199.059 82.9764C197.483 84.6682 194.036 84.7891 194.036 84.7891C194.036 84.7891 195.99 88.7221 192.587 90.1118C189.184 91.5015 185.276 88.9143 185.276 88.9143C185.276 88.9143 185.885 90.7105 183.322 90.2546C180.764 89.7987 178.179 88.6177 176.592 84.855C175.006 81.0923 172.959 70.4579 174.869 67.2884L174.858 67.2829Z" fill="#263238" stroke="#263238" stroke-linecap="round" stroke-linejoin="round"/>
<g id="Group_8">
<path id="Vector_13" d="M137.127 187.058C137.127 187.058 135.09 194.836 135.118 195.698C135.145 196.566 134.448 198.516 135.041 199.071C135.639 199.626 138.301 201.46 138.592 201.548C138.883 201.636 139.739 201.318 140.019 201.114C140.299 200.911 140.475 200.422 140.464 200.137C140.453 199.845 139.641 198.626 139.536 198.34C139.432 198.055 141.035 194.341 141.644 192.49C142.253 190.639 142.621 187.448 142.621 187.448L137.121 187.063L137.127 187.058Z" fill="white" stroke="#263238" stroke-miterlimit="10"/>
<g id="Vector_14">
<path d="M139.339 192.474C139.339 192.474 138.181 195.209 138.104 195.693C138.027 196.176 136.435 197.483 136.666 198.538C136.896 199.593 139.196 199.318 140.338 196.193" fill="#BDBDBD"/>
<path d="M139.339 192.474C139.339 192.474 138.181 195.209 138.104 195.693C138.027 196.176 136.435 197.483 136.666 198.538C136.896 199.593 139.196 199.318 140.338 196.193" stroke="#263238" stroke-miterlimit="10"/>
</g>
</g>
<path id="Vector_15" d="M144.526 144.805C144.526 144.805 143.554 160.669 143.186 162.07C142.819 163.471 138.406 176.264 137.434 180.186C136.462 184.108 136.166 187.59 136.166 187.59L142.094 188.837L145.415 174.215C145.415 174.215 149.762 160.911 148.895 154.654C148.028 148.398 144.526 144.805 144.526 144.805Z" fill="#86E7A4" stroke="#263238" stroke-miterlimit="10"/>
<g id="Group_9">
<g id="Vector_16">
<path d="M175.379 219.746C175.445 216.297 175.593 211.644 175.901 208.98C176.433 204.377 178.414 201.532 180.434 195.77C182.454 190.007 182.608 182.498 182.608 182.498L146.436 183.762C146.436 183.762 142.259 199.324 139.745 210.798C138.9 214.643 138.592 217.56 138.548 219.746" fill="#86E7A4"/>
<path d="M175.379 219.746C175.445 216.297 175.593 211.644 175.901 208.98C176.433 204.377 178.414 201.532 180.434 195.77C182.454 190.007 182.608 182.498 182.608 182.498L146.436 183.762C146.436 183.762 142.259 199.324 139.745 210.798C138.9 214.643 138.592 217.56 138.548 219.746" stroke="#263238" stroke-miterlimit="10"/>
</g>
<path id="Vector_17" d="M151.222 189.623L181.318 190.474L181.955 188.14L151.222 189.623Z" fill="#263238" stroke="#263238" stroke-linecap="round" stroke-linejoin="round"/>
<g id="Vector_18">
<path d="M149.702 219.197C149.702 219.197 149.109 200.362 149.093 190.145L149.702 219.197Z" fill="white"/>
<path d="M149.702 219.197C149.702 219.197 149.109 200.362 149.093 190.145" stroke="#263238" stroke-miterlimit="10"/>
</g>
</g>
<g id="Group_10">
<path id="Vector_19" d="M172.772 104.959L177.163 107.915C177.163 107.915 182.35 112.567 183.646 116.396C184.941 120.219 183.997 143.081 182.707 150.474C181.417 157.868 184.639 167.041 185.786 172.227C186.933 177.412 187.46 187.063 187.46 187.063C187.46 187.063 188.273 188.195 174.177 188.689C160.082 189.183 150.251 189.908 149.098 190.145C147.945 190.381 146.979 190.414 146.979 190.414L146.42 185.404L145.014 189.513L142.094 188.843C142.094 188.843 143.906 179.884 144.367 176.385C144.822 172.886 147.698 160.988 147.737 156.539C147.775 152.089 144.043 144.866 143.313 140.444C142.583 136.022 144.054 128.425 147.72 122.685C151.387 116.945 153.824 114.737 160.965 108.876C168.106 103.015 172.777 104.965 172.777 104.965L172.772 104.959Z" fill="#86E7A4" stroke="#263238" stroke-miterlimit="10"/>
<path id="Vector_20" d="M161.333 171.897L176.06 173.567L175.231 169.705L166.042 168.914" stroke="#263238" stroke-miterlimit="10"/>
<path id="Vector_21" d="M156.184 168.706L155.438 171.227L159.132 171.65" stroke="#263238" stroke-miterlimit="10"/>
<path id="Vector_22" d="M161.712 143.454C160.943 142.718 160.263 141.988 159.813 141.361" stroke="#263238" stroke-miterlimit="10"/>
<path id="Vector_23" d="M166.833 147.777C166.833 147.777 165.279 146.602 163.578 145.141" stroke="#263238" stroke-miterlimit="10"/>
</g>
<path id="Vector_24" d="M172.772 104.959C172.772 104.959 168.101 103.009 160.96 108.87C153.818 114.731 151.381 116.94 147.715 122.68C145.448 126.234 144.015 130.496 143.433 134.275C143.521 134.704 143.615 135.138 143.719 135.583C145.761 144.218 148.033 148.392 148.033 148.392C148.033 148.392 151.985 128.717 158.863 120.741C165.735 112.765 177.168 107.915 177.168 107.915L172.777 104.959H172.772Z" fill="#86E7A4" stroke="#263238" stroke-miterlimit="10"/>
<path id="Vector_25" d="M155.608 66.5798C155.608 66.5798 150.454 71.3971 150.07 75.1928C149.685 78.9884 149.285 82.2623 148.643 83.4872C148 84.7122 144.762 85.5141 145.86 87.3653C146.952 89.2164 147.984 89.1834 147.984 89.1834C147.984 89.1834 149.642 97.3735 150.882 98.5325C152.123 99.6916 156.563 99.0214 156.563 99.0214L157.93 108.953C157.93 108.953 148.719 117.132 146.924 128.53C145.13 139.922 147.182 146.431 147.182 146.431C147.182 146.431 148.385 128.48 152.534 121.757C156.684 115.033 166.322 108.667 167.744 107.519C169.166 106.371 172.766 104.97 172.766 104.97C172.766 104.97 171.054 101.098 170.823 99.3894C170.593 97.6811 170.675 95.0994 170.994 94.4018C171.312 93.7042 177.075 91.6114 179.249 85.0088C181.423 78.4062 178.233 70.6116 174.858 67.2939C171.482 63.9761 159.922 62.3172 155.608 66.5908V66.5798Z" fill="white" stroke="#263238" stroke-miterlimit="10"/>
<path id="Vector_26" d="M179.254 84.9977C181.428 78.3951 178.239 70.6005 174.863 67.2828C171.487 63.965 159.928 62.3061 155.613 66.5797C155.613 66.5797 155.339 66.8378 154.911 67.2773C155.8 67.0411 157.567 66.728 159.922 67.1125C163.375 67.6783 163.298 70.4302 162.359 73.0394C161.421 75.6486 162.123 76.1375 163.885 77.4503C165.647 78.7631 163.847 81.2295 165.082 82.2182C166.317 83.207 167.332 77.8458 170.044 81.7019C172.755 85.558 170.928 87.3432 169.248 88.4308C167.568 89.5184 166.207 89.9139 166.207 89.9139C166.207 89.9139 168.754 92.8966 171.257 94.127C172.454 93.2152 177.3 90.9301 179.254 84.9922V84.9977Z" fill="#263238" stroke="#263238" stroke-linecap="round" stroke-linejoin="round"/>
<g id="Group_11">
<path id="Vector_27" d="M150.778 90.628C150.778 90.628 154.373 90.3314 156.031 88.7274" stroke="#263238" stroke-miterlimit="10"/>
<path id="Vector_28" d="M153.061 82.1304C153.088 82.9818 152.77 83.6849 152.342 83.7014C151.914 83.7178 151.546 83.0367 151.519 82.1853C151.491 81.3339 151.81 80.6308 152.238 80.6143C152.666 80.5978 153.034 81.279 153.061 82.1304Z" fill="#263238"/>
<path id="Vector_29" d="M151.513 78.6532C151.513 78.6532 152.671 77.0932 154.329 78.9334" stroke="#263238" stroke-miterlimit="10"/>
</g>
<path id="Vector_30" d="M156.563 99.0214L160.85 97.4009L157.864 102.768L156.563 99.0214Z" fill="#263238" stroke="#263238" stroke-miterlimit="10"/>
<path id="Vector_31" d="M144.218 177.857L138.598 201.554L143.642 202.724L146.419 185.399L144.218 177.857Z" fill="white" stroke="#263238" stroke-miterlimit="10"/>
<path id="Vector_32" d="M149.186 121.136C148.171 123.383 147.347 125.866 146.925 128.524C145.13 139.917 147.182 146.426 147.182 146.426C147.182 146.426 148.368 128.717 152.452 121.889C151.167 121.741 150.081 121.46 149.186 121.136Z" fill="white" stroke="#263238" stroke-miterlimit="10"/>
</g>
<g id="Group_12">
<g id="Vector_33">
<path d="M166.553 128.53L166.169 148.634L131.012 154.435L131.786 163.91C131.786 163.91 151.299 164.294 160.378 163.525C169.456 162.751 177.377 162.174 178.535 161.207C179.693 160.241 182.987 141.553 184.337 128.409C185.687 115.264 182.987 110.815 177.575 111.589" fill="#86E7A4"/>
<path d="M166.553 128.53L166.169 148.634L131.012 154.435L131.786 163.91C131.786 163.91 151.299 164.294 160.378 163.525C169.456 162.751 177.377 162.174 178.535 161.207C179.693 160.241 182.987 141.553 184.337 128.409C185.687 115.264 182.987 110.815 177.575 111.589" stroke="#263238" stroke-miterlimit="10"/>
</g>
<g id="Group_13">
<path id="Vector_34" d="M109.978 153.583L107.168 162.13L109.934 163.624C109.934 163.624 113.42 166.327 115.33 167.788C117.24 169.249 118.7 169.249 119.715 168.799C120.725 168.348 125.336 161.822 125.896 160.586C126.456 159.351 123.761 155.637 121.06 154.061C118.36 152.484 116.115 152.484 114.539 152.935C112.964 153.385 109.973 153.577 109.973 153.577L109.978 153.583Z" fill="white" stroke="#263238" stroke-miterlimit="10"/>
<path id="Vector_35" d="M131.012 154.434L126.571 154.05C126.571 154.05 123.481 153.275 122.323 153.275C121.165 153.275 119.617 154.434 118.843 155.017C118.069 155.599 109.572 164.877 109.572 164.877C109.572 164.877 110.346 166.426 111.504 166.036C112.662 165.651 114.786 164.684 114.786 164.684C114.786 164.684 112.47 167.002 113.628 168.167C114.786 169.326 116.719 169.326 116.719 169.326L118.069 168.551C118.069 168.551 119.035 169.326 120.001 169.518C120.967 169.71 122.515 169.326 123.865 168.551C125.215 167.777 128.641 163.745 128.641 163.745L131.61 162.597L131.012 154.44V154.434Z" fill="white" stroke="#263238" stroke-miterlimit="10"/>
<g id="Vector_36">
<path d="M111.51 153.951C111.51 153.951 117.13 150.688 119.606 151.589C122.081 152.49 125.336 157.999 124.442 158.79C123.541 159.576 122.081 159.241 121.296 158.455C120.511 157.67 119.161 156.879 119.161 156.879C119.161 156.879 116.911 158.23 114.325 158.23" fill="white"/>
<path d="M111.51 153.951C111.51 153.951 117.13 150.688 119.606 151.589C122.081 152.49 125.336 157.999 124.442 158.79C123.541 159.576 122.081 159.241 121.296 158.455C120.511 157.67 119.161 156.879 119.161 156.879C119.161 156.879 116.911 158.23 114.325 158.23" stroke="#263238" stroke-miterlimit="10"/>
</g>
<g id="Group_14">
<path id="Vector_37" d="M128.273 166.722L126.489 165.767C125.885 165.442 125.66 164.695 125.978 164.091C126.302 163.487 127.049 163.262 127.653 163.58L129.436 164.536C130.04 164.86 130.265 165.607 129.947 166.211C129.623 166.816 128.877 167.041 128.273 166.722Z" fill="white" stroke="#263238" stroke-miterlimit="10"/>
<path id="Vector_38" d="M126.697 168.634L124.914 167.678C124.31 167.354 124.085 166.607 124.403 166.003C124.727 165.399 125.473 165.173 126.077 165.492L127.861 166.448C128.465 166.772 128.69 167.519 128.372 168.123C128.048 168.727 127.301 168.952 126.697 168.634Z" fill="white" stroke="#263238" stroke-miterlimit="10"/>
<path id="Vector_39" d="M124.897 170.32L123.113 169.364C122.509 169.04 122.284 168.293 122.602 167.689C122.926 167.085 123.673 166.86 124.277 167.178L126.061 168.134C126.664 168.458 126.889 169.205 126.571 169.809C126.247 170.414 125.501 170.639 124.897 170.32Z" fill="white" stroke="#263238" stroke-miterlimit="10"/>
<path id="Vector_40" d="M121.11 170.408L120.643 170.155C120.039 169.831 119.814 169.084 120.133 168.48C120.456 167.876 121.203 167.651 121.807 167.969L122.273 168.222C122.877 168.546 123.102 169.293 122.784 169.897C122.46 170.501 121.713 170.727 121.11 170.408Z" fill="white" stroke="#263238" stroke-miterlimit="10"/>
</g>
</g>
</g>
<g id="Group_15">
<path id="Vector_41" d="M109.978 153.583L86.3866 143.602L87.2593 159.241L106.74 163.707L109.978 153.583Z" fill="#263238" stroke="#263238" stroke-linecap="round" stroke-linejoin="round"/>
<path id="Vector_42" d="M106.74 163.707L109.978 153.583L106.679 152.128L106.619 152.457L103.595 162.943L106.74 163.707Z" fill="white" stroke="#263238" stroke-miterlimit="10"/>
</g>
<g id="Group_16">
<g id="Group_17">
<g id="Group_18">
<path id="Vector_43" d="M73.1528 91.0288L79.2016 93.8357C79.2016 93.8357 81.7375 101.026 80.8922 101.235C80.0469 101.444 73.7072 96.3735 73.7072 96.3735L73.1473 91.0288H73.1528Z" fill="white" stroke="#263238" stroke-linecap="round" stroke-linejoin="round"/>
<path id="Vector_44" d="M76.6382 89.5897L77.0609 87.1673C77.0609 87.1673 82.6596 87.5518 84.8991 87.5408C87.1386 87.5243 89.0926 87.2332 89.0762 84.8547C89.0597 82.4763 87.7533 74.3631 87.7533 74.3631C87.7533 74.3631 90.2673 73.7864 91.2388 72.6603C92.2104 71.5342 90.8052 70.1445 89.5317 68.4691C88.2638 66.7993 87.1331 64.9866 86.9794 63.0256C86.8257 61.0646 83.428 54.6488 83.428 54.6488C83.428 54.6488 83.9824 53.6655 82.1491 51.5782C80.3158 49.4908 70.9462 49.1283 64.9467 52.1055C58.9528 55.0827 57.5806 59.4332 57.608 64.1901C57.6355 68.947 60.336 75.654 60.336 75.654C60.336 75.654 58.5631 82.9432 58.4259 83.3661C58.2886 83.7891 56.7023 86.8872 56.7023 86.8872C56.7023 86.8872 64.2002 92.1275 66.9447 94.473C69.6892 96.8185 75.8643 100.845 75.9027 98.6751C75.9411 96.4999 76.1881 91.5837 76.1881 91.5837L76.6272 89.5897H76.6382Z" fill="white" stroke="#263238" stroke-linecap="round" stroke-linejoin="round"/>
<path id="Vector_45" d="M84.9099 66.8708C84.9483 67.6837 84.7562 68.3484 84.4872 68.3594C84.2183 68.3704 83.9713 67.7222 83.9328 66.9147C83.8944 66.1017 84.0865 65.4371 84.3555 65.4261C84.6245 65.4151 84.8715 66.0633 84.9099 66.8708Z" fill="#263238"/>
<path id="Vector_46" d="M80.9744 64.1846C80.9744 64.1846 82.2204 62.0753 85.4479 63.3167" stroke="#263238" stroke-width="2" stroke-linecap="round" stroke-linejoin="round"/>
</g>
<path id="Vector_47" d="M89.0761 84.8548C89.0597 82.4763 87.7533 74.3632 87.7533 74.3632C87.7533 74.3632 86.2109 73.5337 83.2743 74.2533C80.3432 74.9729 79.5309 79.7353 78.9765 80.3011C78.4221 80.8669 74.761 77.5271 73.3503 75.297C71.9396 73.0668 70.9352 69.1503 70.7815 66.9147C70.6278 64.6735 75.9356 63.5255 76.7644 61.4162C77.5933 59.3124 73.6577 57.0932 75.0519 55.687C76.4406 54.2808 79.2454 54.8191 80.6451 55.0938C82.0448 55.3629 83.439 54.6543 83.439 54.6543C83.439 54.6543 83.9934 53.6711 82.1601 51.5837C80.3268 49.4964 70.9571 49.1339 64.9577 52.1111C58.9638 55.0883 57.5915 59.4387 57.619 64.1957C57.6409 68.0517 59.4193 73.1822 60.0945 74.9949C60.6324 75.1871 61.5106 75.4673 61.8839 75.3684C62.4437 75.2256 62.8499 73.5447 63.1189 71.8639C63.3878 70.183 67.4332 68.2 67.4332 68.2C67.4332 68.2 68.1632 73.2371 68.1687 74.2149C68.1742 75.1926 67.6473 80.0979 70.3204 82.4599C72.9935 84.8218 77.0663 87.1783 77.0663 87.1783C77.0663 87.1783 82.6651 87.5628 84.9045 87.5519C87.144 87.5354 89.0981 87.2443 89.0816 84.8658L89.0761 84.8548Z" fill="#263238" stroke="#263238" stroke-linecap="round" stroke-linejoin="round"/>
<g id="Vector_48">
<path d="M68.2951 71.6825C68.2951 71.6825 67.1369 64.97 65.1773 65.2612C63.2233 65.5523 62.12 68.0791 63.119 71.2925C64.118 74.5059 66.072 74.2147 67.1918 73.9291" fill="white"/>
<path d="M68.2951 71.6825C68.2951 71.6825 67.1369 64.97 65.1773 65.2612C63.2233 65.5523 62.12 68.0791 63.119 71.2925C64.118 74.5059 66.072 74.2147 67.1918 73.9291" stroke="#263238" stroke-linecap="round" stroke-linejoin="round"/>
</g>
<path id="Vector_49" d="M82.0338 76.7801C82.0338 76.7801 83.1591 78.1753 86.1012 78.1533" stroke="white" stroke-linecap="round" stroke-linejoin="round"/>
</g>
<path id="Vector_50" d="M50.6042 219.746H80.2391C80.3434 218.186 81.4905 212.188 81.4905 208.255C81.4905 203.707 84.6138 174.407 84.6138 174.407L46.0648 173.902L47.3273 191.836L50.5987 219.746H50.6042Z" fill="#263238" stroke="#263238" stroke-linecap="round" stroke-linejoin="round"/>
<path id="Vector_51" d="M54.4849 87.9199C54.4849 87.9199 47.7225 96.5879 45.8233 101.449C43.9241 106.31 42.4421 107.156 42.8648 113.287C43.2874 119.417 46.246 143.943 46.246 143.943L40.3289 175.868C40.3289 175.868 49.8358 179.675 62.0926 179.675C74.3494 179.675 79.6298 178.62 80.4751 178.197C81.3204 177.774 88.714 175.874 88.714 175.874C88.714 175.874 88.714 139.719 86.3922 127.244C84.0703 114.77 81.1118 105.256 80.0524 102.932C78.9986 100.609 75.6174 92.9954 75.6174 92.9954L54.4904 87.9199H54.4849Z" fill="#263238" stroke="#263238" stroke-linecap="round" stroke-linejoin="round"/>
<path id="Vector_52" d="M80.0525 102.932C78.9986 100.609 75.6174 92.9954 75.6174 92.9954L54.4905 87.9199C54.4905 87.9199 53.0633 89.7546 51.3343 92.2045C55.9396 94.885 67.3401 101.493 68.0152 101.663C68.8605 101.872 73.087 101.449 73.087 101.449L71.1879 103.773C71.1879 103.773 76.2597 107.788 77.9502 109.48C78.8395 110.37 81.4193 112.721 83.6697 114.748C82.1383 108.672 80.7222 104.382 80.0635 102.927L80.0525 102.932Z" fill="#263238" stroke="#263238" stroke-linecap="round" stroke-linejoin="round"/>
<path id="Vector_53" d="M70.3314 97.6424L77.5165 103.355L83.4335 113.924L79.6297 98.4883L71.8134 94.05L70.3314 97.6424Z" fill="white" stroke="#263238" stroke-linecap="round" stroke-linejoin="round"/>
<path id="Vector_54" d="M55.9668 83.899L78.0873 93.8798V101.702L52.7942 88.7658L55.9668 83.899Z" fill="white" stroke="#263238" stroke-linecap="round" stroke-linejoin="round"/>
<g id="Group_19">
<path id="Vector_55" d="M85.2175 163.921H46.9924V194.874H85.2175V163.921Z" fill="#86E7A4" stroke="#263238" stroke-miterlimit="10"/>
<path id="Vector_56" d="M68.4487 178.67C68.4487 178.67 71.292 182.377 72.4007 182.751C73.515 183.124 74.1297 183.987 74.6238 184.728C75.1178 185.47 75.738 191.034 76.1058 191.408C76.479 191.781 76.479 192.644 75.1178 192.029C73.7565 191.408 72.8947 189.31 72.8947 189.31L73.3887 194.259C73.3887 194.259 74.503 194.506 73.6357 195.127C72.7685 195.747 72.0275 196.61 71.2865 196.242C70.5455 195.868 69.4312 194.88 69.4312 194.88C69.4312 194.88 68.0699 195.374 66.7142 195.127C65.3529 194.88 65.5999 195.374 64.3649 194.506C63.1299 193.638 63.1299 194.632 62.5096 193.023C61.8894 191.413 60.4074 185.849 60.1604 184.245C59.9134 182.636 59.6664 180.411 59.6664 180.411L68.4377 178.681L68.4487 178.67Z" fill="white" stroke="#263238" stroke-linecap="round" stroke-linejoin="round"/>
<path id="Vector_57" d="M68.9482 176.319L69.8099 180.153L59.1833 181.636L58.6893 177.807L68.9482 176.319Z" fill="white" stroke="#263238" stroke-linecap="round" stroke-linejoin="round"/>
<g id="Vector_58">
<path d="M55.33 95.5278C55.33 95.5278 47.9364 97.8513 47.7224 101.235C47.5138 104.619 45.0602 145.651 46.1196 148.403C47.1735 151.15 57.575 178.983 57.575 178.983L69.6178 177.505C69.6178 177.505 63.4427 145.234 63.2341 144.597C63.0256 143.965 67.3728 108.002 67.3728 108.002" fill="#263238"/>
<path d="M55.33 95.5278C55.33 95.5278 47.9364 97.8513 47.7224 101.235C47.5138 104.619 45.0602 145.651 46.1196 148.403C47.1735 151.15 57.575 178.983 57.575 178.983L69.6178 177.505C69.6178 177.505 63.4427 145.234 63.2341 144.597C63.0256 143.965 67.3728 108.002 67.3728 108.002" stroke="#263238" stroke-linecap="round" stroke-linejoin="round"/>
</g>
<g id="Group_20">
<path id="Vector_59" d="M65.9567 118.334L63.2342 144.602L65.8305 160.922" stroke="#878787" stroke-linecap="round" stroke-linejoin="round"/>
<path id="Vector_60" d="M66.3738 114.314L66.2311 115.709" stroke="#878787" stroke-linecap="round" stroke-linejoin="round"/>
<path id="Vector_61" d="M46.877 110.249L46.0647 134.907" stroke="#878787" stroke-linecap="round" stroke-linejoin="round"/>
<path id="Vector_62" d="M74.4975 156.61L82.6211 156.313L83.3512 159.241L69.8922 160.109" stroke="#878787" stroke-linecap="round" stroke-linejoin="round"/>
<path id="Vector_63" d="M67.7295 156.857L72.0548 156.698" stroke="#878787" stroke-linecap="round" stroke-linejoin="round"/>
<path id="Vector_64" d="M53.107 92.9019L68.0095 101.663L73.0813 101.449L71.1767 103.778L80.9964 111.6" stroke="#878787" stroke-linecap="round" stroke-linejoin="round"/>
</g>
</g>
</g>
</g>
</g>
<g id="Table">
<path id="Vector_65" d="M0 219.746H231.598" stroke="#263238" stroke-miterlimit="10"/>
</g>
</g>
<defs>
<clipPath id="clip0_248_2815">
<rect width="240" height="220" fill="white"/>
</clipPath>
</defs>
</svg>
