<svg width="24" height="25" viewBox="0 0 24 25" fill="none" xmlns="http://www.w3.org/2000/svg">
<g id="&#208;&#146;&#208;&#184;&#208;&#177;&#208;&#181;&#209;&#128;">
<path id="Vector" d="M18.2539 2.29591C14.4424 1.56803 10.4843 1.56803 6.67277 2.29591C4.98691 2.65986 2.86126 4.69793 2.49476 6.29928C1.83508 9.42919 1.83508 12.6319 2.49476 15.7618C2.93456 17.3631 5.06021 19.4012 6.67277 19.7652C6.74607 19.7652 6.81937 19.8379 6.81937 19.9107V24.4964C6.81937 24.7148 7.11257 24.8603 7.25916 24.642L9.45812 22.3855C9.45812 22.3855 11.2173 20.5658 11.5105 20.2747C11.5105 20.2747 11.5838 20.2019 11.6571 20.2019C13.856 20.2747 16.1283 20.0563 18.3272 19.6924C20.0131 19.3284 22.1387 17.2903 22.5052 15.689C23.1649 12.5591 23.1649 9.3564 22.5052 6.22649C22.0654 4.69793 19.9398 2.65986 18.2539 2.29591ZM18.3272 15.9802C17.9607 16.708 17.5209 17.2903 16.788 17.6543C16.5681 17.7271 16.3482 17.7999 16.1283 17.8727C15.8351 17.7999 15.6152 17.7271 15.3953 17.6543C13.0497 16.708 10.8508 15.3978 9.09162 13.5053C8.13874 12.4135 7.33246 11.1761 6.67277 9.86592C6.37958 9.21082 6.08639 8.62851 5.86649 7.97342C5.6466 7.39111 6.01309 6.8088 6.37958 6.37207C6.74607 5.93534 7.18586 5.64418 7.69895 5.42582C8.06544 5.20745 8.43194 5.35303 8.72513 5.64418C9.31152 6.37207 9.8979 7.09995 10.3377 7.90063C10.6309 8.41015 10.5576 8.99245 10.0445 9.3564C9.8979 9.42919 9.82461 9.50198 9.67801 9.64755C9.60471 9.72034 9.45811 9.79313 9.38481 9.9387C9.23822 10.1571 9.23822 10.3754 9.31152 10.5938C9.8979 12.2679 10.9974 13.5781 12.6832 14.306C12.9764 14.4516 13.1963 14.5244 13.5628 14.5244C14.0759 14.4516 14.2958 13.8693 14.6623 13.5781C15.0288 13.287 15.4686 13.287 15.9084 13.5053C16.2749 13.7237 16.6414 14.0149 17.0811 14.306C17.4476 14.5972 17.8141 14.8155 18.1806 15.1067C18.4005 15.2523 18.4738 15.6162 18.3272 15.9802ZM15.2487 10.521C15.1021 10.521 15.1754 10.521 15.2487 10.521C14.9555 10.521 14.8822 10.3754 14.8089 10.1571C14.8089 10.0115 14.8089 9.79313 14.7356 9.64755C14.6623 9.3564 14.5157 9.06524 14.2225 8.84688C14.0759 8.77409 13.9293 8.7013 13.7827 8.62851C13.5628 8.55572 13.4162 8.55572 13.1963 8.55572C12.9764 8.48294 12.9031 8.33736 12.9031 8.11899C12.9031 7.97342 13.123 7.82784 13.2696 7.82784C14.4424 7.90063 15.322 8.55572 15.4686 9.9387C15.4686 10.0115 15.4686 10.1571 15.4686 10.2299C15.4686 10.3754 15.3953 10.521 15.2487 10.521ZM14.5157 7.31832C14.1492 7.17274 13.7827 7.02717 13.3429 6.95438C13.1963 6.95438 12.9764 6.88159 12.8298 6.88159C12.6099 6.88159 12.4634 6.73601 12.5366 6.51765C12.5366 6.29928 12.6832 6.1537 12.9031 6.22649C13.6361 6.29928 14.2958 6.44486 14.9555 6.73601C16.2749 7.39111 17.0079 8.48293 17.2277 9.9387C17.2277 10.0115 17.2277 10.0843 17.2277 10.1571C17.2277 10.3026 17.2277 10.4482 17.2277 10.6666C17.2277 10.7394 17.2277 10.8122 17.2277 10.885C17.1545 11.1761 16.6414 11.2489 16.5681 10.885C16.5681 10.8122 16.4948 10.6666 16.4948 10.5938C16.4948 9.93871 16.3482 9.28361 16.055 8.7013C15.6152 8.0462 15.1021 7.60947 14.5157 7.31832ZM18.4738 11.6856C18.2539 11.6856 18.1073 11.4673 18.1073 11.2489C18.1073 10.8122 18.034 10.3754 17.9607 9.9387C17.6675 7.60947 15.7618 5.71697 13.4895 5.35303C13.123 5.28024 12.7565 5.28024 12.4634 5.20745C12.2435 5.20745 11.9503 5.20745 11.877 4.9163C11.8037 4.69793 12.0236 4.47957 12.2435 4.47957C12.3168 4.47957 12.3901 4.47957 12.3901 4.47957C12.5367 4.47957 15.3953 4.55236 12.3901 4.47957C15.4686 4.55236 18.034 6.59044 18.5471 9.64755C18.6204 10.1571 18.6937 10.6666 18.6937 11.2489C18.8403 11.4673 18.6937 11.6856 18.4738 11.6856Z" fill="#349F55"/>
</g>
</svg>
