<svg width="25" height="25" viewBox="0 0 25 25" fill="none" xmlns="http://www.w3.org/2000/svg">
<g id="WhatsApp/Variant4">
<path id="Vector" d="M13.0225 20.75C5.16434 20.75 0.683816 15.1295 0.5 5.76201H4.45205C4.57842 12.6315 7.47353 15.5378 9.77123 16.1383V5.76201H13.482V11.6827C15.7453 11.4305 18.1349 8.72838 18.9391 5.75H22.6384C22.3367 7.29175 21.7342 8.75192 20.8684 10.0393C20.0026 11.3266 18.8921 12.4135 17.6064 13.232C19.0412 13.9785 20.3084 15.0346 21.3243 16.3305C22.3401 17.6263 23.0817 19.1326 23.5 20.75H19.4216C18.5485 17.9037 16.3656 15.694 13.482 15.3937V20.75H13.034H13.0225Z" fill="#349F55"/>
</g>
</svg>
