<svg width="61" height="61" viewBox="0 0 61 61" fill="none" xmlns="http://www.w3.org/2000/svg">
<g id="Group">
<path id="Rectangle 211" d="M57.1875 6.67187C57.1875 5.09268 55.9073 3.8125 54.3281 3.8125H29.6508C29.5465 3.8125 29.4471 3.81567 29.3524 3.82204C27.5608 3.94243 29.2495 6.02751 30.9749 6.52481C34.6815 7.59318 40.1929 11.571 40.5077 25.7344C40.9162 44.1117 43.0021 52.0651 43.5905 53.9647C43.6878 54.2788 43.7375 54.601 43.8055 54.9227C44.0801 56.2209 45.2319 57.1875 46.6028 57.1875H54.3281C55.9073 57.1875 57.1875 55.9073 57.1875 54.3281V6.67187Z" fill="#D8E7DC"/>
<path id="Vector" d="M2.03325 39.65H22.3667C23.4893 39.6488 24.3987 38.7393 24.4001 37.6167V23.3832C24.3987 22.2607 23.4893 21.3513 22.3667 21.3499H2.03325C0.91083 21.3513 0.00142969 22.2607 0 23.3832V37.6167C0.00142969 38.7393 0.91083 39.6487 2.03325 39.6501V39.65ZM2.03325 23.3832H22.3667L22.3677 37.6167H2.03325V23.3832ZM2.03325 61H10.1665C11.2891 60.9985 12.1989 60.0891 12.1998 58.9667V44.733C12.1989 43.611 11.2891 42.7012 10.1665 42.6997H2.03325C0.91083 42.7012 0.00142969 43.611 0 44.7331V58.9667C0.00142969 60.0891 0.91083 60.9985 2.03325 61ZM2.03325 44.7331H10.1665L10.1679 58.9667H2.03325V44.7331Z" fill="#349F55"/>
<path id="Vector_2" d="M58.9667 0H2.03325C0.91083 0.00142969 0.00142969 0.91083 0 2.03325V16.267C0.00142969 17.3889 0.91083 18.2988 2.03325 18.3002H30.0271C30.6004 19.2748 31.0926 20.2947 31.4988 21.3499H29.4831C28.3611 21.3513 27.4512 22.2607 27.4498 23.3833V37.6167C27.4512 38.7393 28.3611 39.6487 29.4831 39.6501H31.4401C31.4261 40.1094 31.3992 40.5711 31.4043 41.0249C31.4112 41.5628 31.4373 42.1265 31.4722 42.6998H17.2833C16.1608 42.7012 15.2514 43.6111 15.25 44.7331V58.9667C15.2514 60.0892 16.1608 60.9986 17.2833 61H58.9667C60.0892 60.9986 60.9986 60.0892 61 58.9667V2.03325C60.9986 0.91083 60.0892 0.00142969 58.9667 0ZM2.03325 2.03325H19.0551C18.9898 3.45771 19.0362 4.88509 19.1938 6.3023C19.7564 9.22125 22.0349 10.6953 24.0454 11.996L24.3721 12.2073C26.0307 13.3023 27.4876 14.6757 28.6785 16.2669H2.03325V2.03325ZM29.4831 23.3833H32.1507C32.6153 25.0795 32.8669 26.827 32.8996 28.5854C32.8702 30.156 32.6539 31.7175 32.2554 33.237C32.1041 33.9226 31.9524 34.6136 31.8273 35.3256C31.6951 36.0702 31.6086 36.841 31.5434 37.6167H29.4831V23.3833ZM17.2833 44.7331H31.6747C32.2164 49.9158 34.1921 54.8448 37.38 58.9667H17.2834L17.2833 44.7331ZM58.9667 58.9667H40.0769C36.2571 54.7226 33.9687 49.3215 33.5767 43.625C33.4944 42.7133 33.4478 41.8296 33.438 40.9988C33.4278 40.2402 33.4487 39.4658 33.499 38.6821C33.5462 37.6751 33.6565 36.6721 33.8294 35.6789C33.9509 34.9952 34.0966 34.3316 34.2417 33.6735C34.6759 32.0005 34.9083 30.2815 34.9338 28.5532C34.897 26.3514 34.5489 24.1658 33.8997 22.0615C33.3209 20.1953 32.507 18.4103 31.4778 16.7495C29.9662 14.2494 27.9184 12.116 25.4822 10.5034L25.1494 10.288C23.2395 9.05195 21.5883 7.9848 21.1939 5.94536C21.0744 4.64498 21.0357 3.33843 21.0781 2.03325H58.9667V58.9667Z" fill="#349F55"/>
<path id="Vector_3" d="M23.2324 5.7235C23.5372 6.7798 24.5787 7.4975 26.2538 8.58001L26.5971 8.80281C29.2786 10.5732 31.533 12.9175 33.1974 15.666C34.324 17.4834 35.2146 19.4369 35.8478 21.4793C35.9287 21.7364 36.1085 21.9509 36.3475 22.0756C36.5865 22.2003 36.8653 22.225 37.1225 22.1443C37.3798 22.0633 37.5943 21.8835 37.7191 21.6444C37.8438 21.4053 37.8684 21.1264 37.7875 20.8691C37.1033 18.664 36.1416 16.5549 34.9254 14.5923C33.1039 11.5907 30.6383 9.03132 27.7067 7.0991L27.3586 6.87333C26.5661 6.43036 25.8428 5.87375 25.2117 5.2212L25.1958 5.01604C25.187 4.88276 25.152 4.75252 25.0929 4.63276C25.0337 4.513 24.9516 4.40606 24.8511 4.31806C24.7506 4.23006 24.6338 4.16272 24.5073 4.11988C24.3808 4.07704 24.247 4.05955 24.1138 4.0684C23.8447 4.08647 23.5938 4.21064 23.4162 4.41363C23.2386 4.61661 23.1489 4.8818 23.1667 5.15091C23.177 5.29662 23.1867 5.42874 23.197 5.54002C23.2035 5.60198 23.2151 5.66333 23.2324 5.7235ZM36.9652 28.5175C36.942 30.4261 36.6896 32.3249 36.2136 34.1733C36.0786 34.7844 35.9436 35.3993 35.8323 36.0312C35.6714 36.9558 35.5693 37.8898 35.5266 38.8273C35.4809 39.5421 35.4623 40.2584 35.4708 40.9746C35.4801 41.7527 35.5239 42.5764 35.6011 43.4295C35.9367 48.2151 37.699 52.7902 40.6604 56.5644C40.7441 56.6711 40.8484 56.7599 40.967 56.8257C41.0857 56.8915 41.2162 56.9328 41.3511 56.9474C41.486 56.9619 41.6224 56.9493 41.7523 56.9103C41.8822 56.8713 42.003 56.8067 42.1076 56.7203C42.2121 56.6339 42.2983 56.5275 42.3611 56.4072C42.4239 56.287 42.462 56.1554 42.4732 56.0202C42.4844 55.885 42.4683 55.749 42.4261 55.6201C42.3839 55.4912 42.3163 55.3721 42.2273 55.2697C39.5438 51.8005 37.9431 47.6169 37.6256 43.2424C37.5544 42.4466 37.5139 41.6755 37.5046 40.9495C37.4953 40.2905 37.5129 39.6217 37.5571 38.9417C37.5952 38.0845 37.6879 37.231 37.8341 36.3853C37.9411 35.7827 38.0715 35.1944 38.2133 34.5469C38.7196 32.5652 38.9832 30.5292 38.9985 28.4839C38.9942 28.2172 38.8852 27.9629 38.695 27.7759C38.5049 27.5889 38.2488 27.4842 37.9821 27.4843H37.9654C37.8319 27.4863 37.7001 27.5146 37.5775 27.5677C37.455 27.6208 37.3442 27.6976 37.2514 27.7937C37.0639 27.9875 36.961 28.2478 36.9652 28.5174V28.5175Z" fill="#349F55"/>
</g>
</svg>
