<svg width="24" height="25" viewBox="0 0 24 25" fill="none" xmlns="http://www.w3.org/2000/svg">
<g id="Frame 2">
<path id="whatsapp" fill-rule="evenodd" clip-rule="evenodd" d="M19.7 4.9125C17.6375 2.85 14.8875 1.75 12 1.75C5.95 1.75 1 6.7 1 12.75C1 14.675 1.55001 16.6 2.51251 18.25L1 23.75L6.77502 22.2375C8.42502 23.0625 10.2125 23.6125 12 23.6125C18.05 23.6125 23 18.6625 23 12.6125C23 9.725 21.7625 6.975 19.7 4.9125ZM12 21.825C10.35 21.825 8.70001 21.4125 7.32501 20.5875L7.04999 20.45L3.61249 21.4125L4.57501 18.1125L4.29999 17.7C3.33749 16.1875 2.92499 14.5375 2.92499 12.8875C2.92499 7.9375 7.05 3.8125 12 3.8125C14.475 3.8125 16.675 4.775 18.4625 6.425C20.25 8.2125 21.075 10.4125 21.075 12.8875C21.075 17.7 17.0875 21.825 12 21.825ZM16.95 14.95C16.675 14.8125 15.3 14.125 15.025 14.125C14.75 13.9875 14.6125 13.9875 14.475 14.2625C14.3375 14.5375 13.7875 15.0875 13.65 15.3625C13.5125 15.5 13.375 15.5 13.1 15.5C12.825 15.3625 12 15.0875 10.9 14.125C10.075 13.4375 9.52501 12.475 9.38751 12.2C9.25001 11.925 9.38752 11.7875 9.52502 11.65C9.66252 11.5125 9.8 11.375 9.9375 11.2375C10.075 11.1 10.075 10.9625 10.2125 10.825C10.35 10.6875 10.2125 10.55 10.2125 10.4125C10.2125 10.275 9.66251 8.9 9.38751 8.35C9.25001 7.9375 8.97502 7.9375 8.83752 7.9375C8.70002 7.9375 8.56248 7.9375 8.28748 7.9375C8.14998 7.9375 7.87498 7.9375 7.59998 8.2125C7.32498 8.4875 6.63751 9.175 6.63751 10.55C6.63751 11.925 7.59999 13.1625 7.73749 13.4375C7.87499 13.575 9.66248 16.4625 12.4125 17.5625C14.75 18.525 15.1625 18.25 15.7125 18.25C16.2625 18.25 17.3625 17.5625 17.5 17.0125C17.775 16.325 17.775 15.775 17.6375 15.775C17.5 15.0875 17.225 15.0875 16.95 14.95Z" fill="#349F55"/>
</g>
</svg>
