<svg width="61" height="61" viewBox="0 0 61 61" fill="none" xmlns="http://www.w3.org/2000/svg">
<g id="Group">
<g id="Clip path group">
<mask id="mask0_248_11512" style="mask-type:luminance" maskUnits="userSpaceOnUse" x="0" y="0" width="61" height="61">
<g id="a">
<path id="Vector" d="M59.9998 60V1.00018H1V60H59.9998Z" fill="white" stroke="white" stroke-width="2"/>
</g>
</mask>
<g mask="url(#mask0_248_11512)">
<g id="Group_2">
<path id="Vector_2" d="M4.00873 12.8607V7.92284C4.00873 4.04065 7.15582 0.893561 11.038 0.893561H49.9617C53.844 0.893561 56.9911 4.04077 56.9911 7.92296V46.0474" stroke="#349F55" stroke-width="2" stroke-miterlimit="10" stroke-linecap="round" stroke-linejoin="round"/>
<path id="Vector_3" d="M4.00873 49.5625V17.0311" stroke="#349F55" stroke-width="2" stroke-miterlimit="10" stroke-linecap="round" stroke-linejoin="round"/>
<path id="Vector_4" d="M40.192 39.0181H14.5529C8.72957 39.0181 4.00876 43.739 4.00876 49.5623C4.00876 55.3858 8.72957 60.1064 14.5529 60.1064H45.7428C47.4133 60.1064 48.7677 58.7522 48.7677 57.0815V56.1021C48.7677 54.4314 47.4133 53.0771 45.7428 53.0771H49.9618C53.8441 53.0771 56.9911 49.9298 56.9911 46.0475C56.9911 42.1654 53.8441 39.0181 49.9618 39.0181H44.3619" stroke="#349F55" stroke-width="2" stroke-miterlimit="10" stroke-linecap="round" stroke-linejoin="round"/>
<path id="Vector_5" d="M15.2403 53.0771H14.5865C12.9158 53.0771 11.5614 51.7228 11.5614 50.0521V49.0727C11.5614 47.402 12.9158 46.0478 14.5865 46.0478H48.6923L50.9358 43.8041" stroke="#349F55" stroke-width="2" stroke-miterlimit="10" stroke-linecap="round" stroke-linejoin="round"/>
<path id="Vector_6" d="M45.7462 53.0771H19.4103" stroke="#349F55" stroke-width="2" stroke-miterlimit="10" stroke-linecap="round" stroke-linejoin="round"/>
<path id="Vector_7" d="M48.6924 46.0474L50.8893 48.2444" stroke="#349F55" stroke-width="2" stroke-miterlimit="10" stroke-linecap="round" stroke-linejoin="round"/>
<path id="Vector_8" d="M12.9559 52.6007L11.0731 54.4834" stroke="#349F55" stroke-width="2" stroke-miterlimit="10" stroke-linecap="round" stroke-linejoin="round"/>
<path id="Vector_9" d="M12.9562 46.5239L11.0731 44.6408" stroke="#349F55" stroke-width="2" stroke-miterlimit="10" stroke-linecap="round" stroke-linejoin="round"/>
<path id="Vector_10" d="M9.72314 9.05811L11.5433 7.238" stroke="#349F55" stroke-width="2" stroke-miterlimit="10" stroke-linecap="round" stroke-linejoin="round"/>
<path id="Vector_11" d="M14.7242 18.549L16.5443 20.3691" stroke="#349F55" stroke-width="2" stroke-miterlimit="10" stroke-linecap="round" stroke-linejoin="round"/>
<path id="Vector_12" d="M38.6733 48.6523L40.4934 50.4724" stroke="#349F55" stroke-width="2" stroke-miterlimit="10" stroke-linecap="round" stroke-linejoin="round"/>
<path id="Vector_13" d="M41.2964 16.1206L43.1163 17.9407" stroke="#349F55" stroke-width="2" stroke-miterlimit="10" stroke-linecap="round" stroke-linejoin="round"/>
<path id="Vector_14" d="M35.6559 6.49435L37.4759 8.31445" stroke="#349F55" stroke-width="2" stroke-miterlimit="10" stroke-linecap="round" stroke-linejoin="round"/>
<path id="Vector_15" d="M13.2361 32.9966L15.0562 31.1765" stroke="#349F55" stroke-width="2" stroke-miterlimit="10" stroke-linecap="round" stroke-linejoin="round"/>
<path id="Vector_16" d="M39.2503 27.6516L41.0704 25.8315" stroke="#349F55" stroke-width="2" stroke-miterlimit="10" stroke-linecap="round" stroke-linejoin="round"/>
<path id="Vector_17" d="M26.0702 53.0771L27.8903 51.257" stroke="#349F55" stroke-width="2" stroke-miterlimit="10" stroke-linecap="round" stroke-linejoin="round"/>
<path id="Vector_18" d="M25.1602 24.5803L26.9804 22.7602" stroke="#349F55" stroke-width="2" stroke-miterlimit="10" stroke-linecap="round" stroke-linejoin="round"/>
<path id="Vector_19" d="M9.72314 26.7412L11.5433 24.9211" stroke="#349F55" stroke-width="2" stroke-miterlimit="10" stroke-linecap="round" stroke-linejoin="round"/>
<path id="Vector_20" d="M48.5529 33.3411H51.1269" stroke="#349F55" stroke-width="2" stroke-miterlimit="10" stroke-linecap="round" stroke-linejoin="round"/>
<path id="Vector_21" d="M19.4562 57.0266H22.0302" stroke="#349F55" stroke-width="2" stroke-miterlimit="10" stroke-linecap="round" stroke-linejoin="round"/>
<path id="Vector_22" d="M23.2221 32.6047H25.7961" stroke="#349F55" stroke-width="2" stroke-miterlimit="10" stroke-linecap="round" stroke-linejoin="round"/>
<path id="Vector_23" d="M19.4562 42.2671H22.0302" stroke="#349F55" stroke-width="2" stroke-miterlimit="10" stroke-linecap="round" stroke-linejoin="round"/>
<path id="Vector_24" d="M19.9928 10.4031H22.5668" stroke="#349F55" stroke-width="2" stroke-miterlimit="10" stroke-linecap="round" stroke-linejoin="round"/>
<path id="Vector_25" d="M46.9894 9.05811H49.5633" stroke="#349F55" stroke-width="2" stroke-miterlimit="10" stroke-linecap="round" stroke-linejoin="round"/>
<path id="Vector_26" d="M32.6318 13.5471V16.1211" stroke="#349F55" stroke-width="2" stroke-miterlimit="10" stroke-linecap="round" stroke-linejoin="round"/>
<path id="Vector_27" d="M35.6559 32.4183V34.9922" stroke="#349F55" stroke-width="2" stroke-miterlimit="10" stroke-linecap="round" stroke-linejoin="round"/>
<path id="Vector_28" d="M36.5656 57.5324V60.1064" stroke="#349F55" stroke-width="2" stroke-miterlimit="10" stroke-linecap="round" stroke-linejoin="round"/>
<path id="Vector_29" d="M34.3418 43.0942V45.6682" stroke="#349F55" stroke-width="2" stroke-miterlimit="10" stroke-linecap="round" stroke-linejoin="round"/>
<path id="Vector_30" d="M52.0082 19.0827V21.6567" stroke="#349F55" stroke-width="2" stroke-miterlimit="10" stroke-linecap="round" stroke-linejoin="round"/>
</g>
</g>
</g>
</g>
</svg>
