<svg width="24" height="25" viewBox="0 0 24 25" fill="none" xmlns="http://www.w3.org/2000/svg">
<g id="&#208;&#146;&#208;&#184;&#208;&#177;&#208;&#181;&#209;&#128;">
<path id="Vector" d="M23.5055 5.91009C23.229 4.86992 22.4183 4.04995 21.3903 3.76987C19.5122 3.25 11.9997 3.25 11.9997 3.25C11.9997 3.25 4.48756 3.25 2.60948 3.75016C1.60122 4.02995 0.770802 4.87006 0.494239 5.91009C0 7.80995 0 11.75 0 11.75C0 11.75 0 15.7099 0.494239 17.5899C0.771095 18.6299 1.58145 19.4499 2.60962 19.73C4.50733 20.25 12 20.25 12 20.25C12 20.25 19.5122 20.25 21.3903 19.7498C22.4184 19.4699 23.229 18.6499 23.5058 17.6099C23.9999 15.7099 23.9999 11.77 23.9999 11.77C23.9999 11.77 24.0197 7.80995 23.5055 5.91009ZM9.60793 15.39V8.11004L15.8549 11.75L9.60793 15.39Z" fill="#349F55"/>
</g>
</svg>
